<?xml version="1.0" encoding="UTF-8"?>
<svg width="845px" height="761px" viewBox="0 0 845 761" version="1.1" xmlns="http://www.w3.org/2000/svg" xmlns:xlink="http://www.w3.org/1999/xlink">
    <title>Athena Leaf - Sketch</title>
    <g id="Athena" stroke="none" stroke-width="1" fill="none" fill-rule="evenodd">
        <g id="Athena-Leaf" transform="translate(0.225, 0.0851)" fill="#06070B">
            <path d="M9.52061283,760.459022 C8.37418183,760.898964 7.89669583,760.117103 7.54685783,757.227089 C7.29304383,755.130409 7.25766583,749.589882 7.46823683,744.914894 C7.67881583,740.239906 8.30892783,731.689918 8.86849083,725.914894 C9.42804583,720.13987 10.5552198,710.689918 11.3733118,704.914894 C12.1913968,699.13987 13.7130188,690.104164 14.7546828,684.835487 C15.7963468,679.566811 17.8208448,671.016823 19.2535608,665.835487 C20.6862848,660.654152 23.1480698,652.814918 24.7241878,648.414894 C26.3003138,644.01487 29.2864968,636.589882 31.3601518,631.914894 C33.4338058,627.239906 35.9809558,621.614906 37.0204828,619.414894 C38.0600108,617.214882 40.0388398,612.489906 41.4178758,608.914894 C43.0631548,604.649696 43.7681408,601.18473 43.4683518,598.837013 C43.2170778,596.869179 40.9550078,591.244179 38.4415338,586.337013 C35.9280528,581.429848 32.0874768,573.589882 29.9069118,568.914894 C27.7263468,564.239906 23.9487208,555.464882 21.5121828,549.414894 C19.0756518,543.364845 15.6795558,533.689918 13.9653078,527.914894 C12.2510588,522.13987 9.66747883,512.01487 8.22401983,505.414894 C6.78056183,498.814918 4.75258483,488.239845 3.71741283,481.914894 C2.68223383,475.589943 1.32040283,462.76487 0.691114828,453.414894 C0.0618348278,444.064918 -0.183061172,430.513283 0.146909828,423.300148 C0.476880828,416.087013 1.43205083,405.287086 2.26949883,399.300148 C3.10694683,393.313209 5.10553583,383.464943 6.71080583,377.414894 C8.31607683,371.364845 11.7079448,360.385353 14.2482968,353.015968 C16.7886488,345.646583 22.2708038,332.596657 26.4308608,324.015968 C30.5909178,315.435402 36.0709438,305.039894 38.6087018,300.914894 C41.1464598,296.789894 46.8565198,288.239845 51.2977198,281.914894 C55.7389278,275.589943 61.8256738,267.177223 64.8238278,263.22007 C67.8219668,259.262916 70.7850398,256.000465 71.4084228,255.97007 C72.0318048,255.939674 72.7636468,256.927345 73.0347198,258.164894 C73.3058068,259.402443 74.1826078,261.76487 74.9831758,263.414894 C75.7837278,265.064918 77.4798188,269.564918 78.7522638,273.414894 C80.0247098,277.26487 81.8574278,282.214943 82.8249728,284.414894 C83.7925318,286.614845 86.2154598,293.022804 88.2092648,298.65464 C90.2030548,304.286476 92.9039668,311.936378 94.2112488,315.65464 C95.5185458,319.37278 98.1670898,327.589943 100.096884,333.914894 C102.026694,340.239845 104.743994,349.689918 106.135336,354.914894 C107.526678,360.13987 109.833182,370.26487 111.260901,377.414894 C112.68862,384.564918 114.109808,394.01487 114.419089,398.414894 C114.874136,404.888527 114.491782,408.513649 112.415137,417.414894 C111.003683,423.464943 108.227164,433.814918 106.245093,440.414894 C104.263037,447.01487 101.103201,456.914894 99.2232418,462.414894 C97.3432828,467.914894 93.6259978,478.039894 90.9626068,484.914894 C88.2992158,491.789894 82.3738458,506.189918 77.7951258,516.914894 C73.2164058,527.63987 68.9069728,537.76487 68.2186038,539.414894 C67.5302188,541.064918 66.2761138,544.552406 65.4317078,547.164894 C64.1388608,551.164772 64.1169648,551.914894 65.2930658,551.914894 C66.0612398,551.914894 67.8258578,550.45237 69.2144528,548.664894 C70.6030488,546.877418 75.0295468,540.464943 79.0511378,534.414894 C83.0727288,528.364845 92.2205258,515.685158 99.3795678,506.237648 C106.538626,496.790138 113.943808,487.152565 115.835516,484.820778 C117.72724,482.488991 122.698309,476.406471 126.882361,471.303932 C131.066412,466.201393 142.381018,453.338966 152.025931,442.72068 C161.670828,432.102516 176.72695,416.439918 185.483954,407.914894 C194.240973,399.38987 204.076361,390.013161 207.340399,387.077736 C210.604437,384.142311 215.322943,379.867409 217.825964,377.577736 C220.328986,375.288185 224.90119,371.246437 227.986395,368.596046 C231.071631,365.945656 240.746466,358.070656 249.486029,351.096046 C258.225592,344.121437 272.1034,333.622658 280.325568,327.76548 C288.547766,321.908302 298.875006,314.891334 303.275,312.172218 C307.674994,309.453224 315.100012,304.830665 319.775,301.900123 C324.449988,298.969459 330.975012,294.887062 334.275,292.82798 C337.574988,290.76902 348.681494,284.785133 358.956091,279.530495 C369.230688,274.275856 382.055701,268.130104 387.456091,265.873146 C392.856482,263.61631 401.782446,260.254372 407.291541,258.402443 C412.800635,256.550392 423.375616,253.455421 430.791541,251.524513 C438.207434,249.593727 451.925024,246.374611 461.275,244.370827 C470.624976,242.367042 482.100012,240.080788 486.775,239.290382 C491.449988,238.499855 502.279578,237.575661 510.840735,237.236549 C520.079504,236.870582 532.273474,237.107277 540.840735,237.818703 C548.779578,238.478004 559.999976,239.687111 565.775,240.50547 C571.550024,241.323952 580.775,242.916481 586.275,244.044411 C591.775,245.17234 601.675024,247.389992 608.275,248.972511 C614.874976,250.555031 625.9,253.635109 632.775,255.817116 C639.65,257.999123 646.973547,260.376198 649.049475,261.099586 C651.125464,261.822975 652.700476,262.887916 652.549475,263.466164 C652.398535,264.044411 650.475012,266.105202 648.275,268.045753 C646.074988,269.986427 642.925024,272.725807 641.275,274.133278 C639.624976,275.540748 636.21427,278.429909 633.695654,280.553688 C631.176978,282.677345 626.974402,286.18235 624.356604,288.342628 C621.738806,290.502907 617.499548,293.863136 614.936011,295.809791 C612.372473,297.756325 609.374976,300.181496 608.275,301.198952 C607.175024,302.216286 601.611609,306.056129 595.911963,309.731789 C590.212256,313.40757 582.562231,318.11216 578.911963,320.186623 C575.261633,322.261085 567.324988,326.478737 561.275,329.559059 C555.225012,332.639503 545.19834,337.127418 538.993506,339.532326 C532.788733,341.937233 522.663733,345.249123 516.493506,346.892067 C510.32334,348.534889 500.100012,350.808815 493.775,351.945045 C486.183875,353.308693 475.685461,354.212746 462.888403,354.604835 C448.078955,355.058693 440.169714,354.808205 429.388434,353.544166 C421.626044,352.634132 408.299994,350.314308 399.775,348.389137 C391.250006,346.463966 379.775,343.586647 374.275,341.994972 C368.775,340.403419 359.775,337.660866 354.275,335.90049 C348.775,334.139992 342.174292,332.469337 339.606726,332.187843 C335.737494,331.763771 334.001135,332.183815 329.462286,334.642189 C326.450415,336.273415 316.851111,342.700539 308.13056,348.924538 C299.41001,355.148537 286.199988,364.757057 278.775,370.276832 C271.350012,375.796608 259.424994,385.023781 252.275,390.781715 C245.125006,396.539528 232.978308,406.687477 225.282355,413.332741 C217.586401,419.977882 204.86344,431.673805 197.0091,439.323585 C189.154761,446.973366 176.701132,459.798317 169.334372,467.823585 C161.967596,475.848732 151.804007,487.364845 146.748633,493.414894 C141.693243,499.464943 135.243567,507.772926 132.416006,511.877052 C129.588446,515.9813 126.454962,520.861305 125.452704,522.721413 C124.45043,524.581642 123.886023,526.35923 124.198477,526.67173 C124.510916,526.984108 125.838065,526.751564 127.147681,526.154884 C128.457312,525.558205 131.046713,523.75779 132.901907,522.15403 C134.757117,520.55027 139.65,516.990456 143.775,514.243263 C147.9,511.496071 154.65,507.298195 158.775,504.91465 C162.9,502.531105 168.987402,498.912331 172.302557,496.872902 C175.617697,494.833473 184.695258,490.01609 192.47489,486.16758 C200.254553,482.319069 212.167151,476.811256 218.947363,473.927956 C225.727545,471.044655 236.225012,466.899269 242.275,464.716041 C248.324988,462.532814 258.562231,459.219826 265.02439,457.353859 C271.486548,455.487892 283.411536,452.810036 291.52439,451.402931 C299.637213,449.995827 312.798499,448.451271 320.771674,447.970558 C329.027716,447.472877 341.899542,447.472023 350.672125,447.968483 C359.144202,448.447853 371.070685,449.565773 377.175452,450.452614 C383.280188,451.339455 392.100012,452.916237 396.775,453.956642 C401.449988,454.997047 409.775,457.240456 415.275,458.942238 C420.775,460.643898 427.185828,462.796364 429.521246,463.725563 C431.856696,464.65464 433.769202,465.895729 433.771246,466.483375 C433.773322,467.071022 426.912512,474.297584 418.525,482.542457 C410.137488,490.787208 400.125006,500.021217 396.275,503.062477 C392.424994,506.103615 385.674994,511.278053 381.275,514.561012 C376.875006,517.843971 369.9,522.818336 365.775,525.615089 C361.65,528.41172 354.674994,532.894752 350.275,535.577125 C345.875006,538.259498 338.9,542.099831 334.775,544.111122 C330.65,546.122414 323.9,549.320961 319.775,551.219032 C315.65,553.117103 308.203192,556.283607 303.226538,558.255775 C298.249884,560.227943 286.958563,563.620949 278.13468,565.795814 C269.310797,567.970741 256.264471,570.462257 249.142798,571.332558 C242.021155,572.202858 230.007269,572.914894 222.445258,572.914894 C214.883246,572.914894 204.326422,572.452675 198.985571,571.887672 C193.644751,571.322731 185,570.167274 179.775,569.319984 C174.549994,568.472755 166.450003,566.937355 161.775,565.907997 C157.099997,564.878639 148.325003,562.600075 142.275,560.844582 C136.224997,559.089027 128.349997,556.815224 124.775,555.791725 C121.200003,554.768227 115.688498,553.638222 112.527213,553.280617 C106.896063,552.643654 106.711249,552.702736 103.419714,556.192787 C101.571875,558.152077 97.8706118,563.953529 95.1946618,569.084999 C92.5187288,574.216469 88.3549258,582.464882 85.9417628,587.414894 C83.5286008,592.364906 79.8685208,600.01487 77.8082338,604.414894 C75.7479608,608.814918 70.0011808,621.63987 65.0376188,632.914894 C60.0740418,644.189918 53.2041378,660.839882 49.7711468,669.914894 C46.3381558,678.989906 41.5048888,692.26487 39.0305538,699.414894 C36.5562188,706.564918 33.2005288,716.689918 31.5734698,721.914894 C29.9464098,727.13987 27.7339158,734.508827 26.6568208,738.290321 C25.5797178,742.071815 23.3753418,747.088905 21.7581998,749.439308 C20.1410658,751.789711 17.0663128,755.100136 14.9254208,756.795753 C12.7845208,758.491371 10.3523618,760.13987 9.52061283,760.459022 Z" id="Face-Vector-path"></path>
            <path d="M165.532248,382.454567 C164.273581,382.937599 163.540091,382.427223 162.837775,380.580055 C162.307013,379.183937 160.838263,369.125709 159.573874,358.228371 C157.742361,342.44297 157.275,333.129127 157.275,312.414894 C157.275,292.726662 157.710364,283.380348 159.068396,273.914894 C160.05477,267.039894 162.224448,255.789894 163.889899,248.914894 C165.555365,242.039894 169.438666,229.687111 172.519446,221.46421 C175.600241,213.24131 180.747137,201.434059 183.957007,195.225929 C187.166876,189.017677 192.910651,179.320534 196.720923,173.676613 C200.531226,168.032692 206.614233,159.726906 210.238715,155.219337 C213.863196,150.711769 220.161932,143.480568 224.235907,139.149879 C228.309851,134.819191 236.462286,127.032204 242.352362,121.845436 C248.242438,116.658668 256.259619,109.809059 260.168311,106.624245 C264.077002,103.439308 270.65,98.271583 274.775,95.140358 C278.9,92.009132 286.100012,86.874977 290.775,83.731178 C295.449988,80.587257 299.633124,78.373146 300.070807,78.810768 C300.508521,79.24839 301.383978,87.816505 302.016272,97.850929 C302.900092,111.876442 302.884283,120.5261 301.947974,135.255104 C301.278082,145.793068 300.062933,160.039894 299.247626,166.914894 C298.432318,173.789894 296.848151,183.914894 295.727271,189.414894 C294.60636,194.914894 292.515295,203.914894 291.08042,209.414894 C289.645575,214.914894 287.471442,222.114845 286.24906,225.414894 C285.026648,228.714943 282.760992,234.789894 281.21427,238.914894 C279.667517,243.039894 275.722083,251.790382 272.446661,258.360451 C269.17121,264.930519 262.214789,276.63047 256.987952,284.360451 C251.761115,292.090431 244.31626,302.464943 240.443793,307.414894 C236.571356,312.364845 229.566107,320.689918 224.876624,325.914894 C220.187109,331.13987 213.183325,338.73362 209.312628,342.789772 C205.441931,346.845924 197.549994,354.891823 191.775,360.669533 C186.000006,366.447365 178.122,373.563332 174.268347,376.482765 C170.414694,379.402199 166.48345,382.089577 165.532248,382.454567 Z" id="Face-Vector-path"></path>
            <path d="M349.378638,243.72654 C342.482245,246.946754 342.482245,246.946754 343.057196,240.180885 C343.373419,236.459572 344.812231,226.88987 346.254553,218.914894 C347.696844,210.939918 350.396552,198.789894 352.253912,191.914894 C354.111243,185.039894 357.697729,173.789894 360.223883,166.914894 C362.750006,160.039894 367.729834,148.407326 371.290106,141.064674 C374.850409,133.722023 380.739264,122.696998 384.376471,116.564674 C388.013647,110.432228 393.73078,101.814918 397.081152,97.414894 C400.431525,93.01487 406.919806,85.068214 411.499518,79.755592 C416.079199,74.44297 422.789893,67.323952 426.412146,63.935524 C430.034399,60.547096 437.110358,54.506203 442.136511,50.51133 C447.162695,46.516457 455.370093,40.466896 460.375159,37.067848 C465.380286,33.668922 474.15531,28.365944 479.875159,25.283668 C485.595068,22.201271 493.874976,18.107765 498.275,16.187111 C502.675024,14.266334 511.225012,10.906593 517.275,8.72092401 C523.324988,6.53537701 531.65,3.87961601 535.775,2.81931301 C539.9,1.75888801 545.259924,0.60056301 547.68595,0.24509401 C552.096899,-0.40102399 552.096899,-0.40102399 551.463171,8.50693501 C551.1146,13.406349 549.91355,22.768532 548.794043,29.311989 C547.674597,35.855324 545.873938,44.855324 544.792578,49.311989 C543.711218,53.768532 541.30564,61.914894 539.446814,67.414894 C537.588049,72.914894 533.661536,83.039894 530.721167,89.914894 C527.780859,96.789894 524.179175,104.463478 522.717444,106.967384 C521.255713,109.47129 518.843298,113.69883 517.356543,116.361915 C515.869727,119.025001 512.912329,123.726295 510.78446,126.809425 C508.656592,129.892433 504.374365,135.789894 501.268347,139.914894 C498.162329,144.039894 489.157874,153.769752 481.258398,161.536964 C470.829443,171.791115 463.524146,177.945167 454.585364,184.006447 C447.814673,188.597633 437.775,195.1063 432.275,198.470192 C426.775,201.833961 417.100012,207.364967 410.775,210.761085 C404.449988,214.157326 396.908209,218.273415 394.015479,219.90818 C391.122748,221.542946 385.722754,224.51841 382.015479,226.520363 C378.308203,228.522316 373.250006,231.336403 370.775,232.773903 C368.299994,234.211403 364.025,236.539162 361.275,237.946876 C358.525,239.354591 353.171637,241.955421 349.378638,243.72654 Z" id="Face-Vector-path"></path>
            <path d="M568.525,185.551002 C554.912512,185.838356 543.78446,185.700969 543.796048,185.244118 C543.807654,184.788063 547.295142,180.092384 551.546057,174.809303 C555.796973,169.5261 561.799353,162.326149 564.88468,158.809303 C567.970007,155.292335 574.560034,147.648415 579.52915,141.822853 C584.498267,135.997169 593.726416,125.647194 600.036047,118.822853 C606.345679,111.998512 616.630652,101.451027 622.891577,95.384132 C629.152441,89.317238 639.297888,80.431618 645.436926,75.638283 C651.575964,70.844948 661.475989,63.678566 667.436926,59.713112 C673.397864,55.747658 682.509985,50.272926 687.686011,47.547218 C692.862097,44.82151 701.962317,40.440773 707.908728,37.812111 C713.855139,35.183449 723.795203,31.389381 729.997717,29.380836 C736.200232,27.372291 745.324988,24.832985 750.275,23.738014 C755.225012,22.643043 764.622229,20.904884 771.15769,19.875465 C777.693213,18.846168 790.293188,17.482277 799.15769,16.844704 C808.022192,16.20713 821.350012,15.849586 828.775,16.050148 C836.199988,16.250709 842.81748,16.766579 843.480505,17.196388 C844.362646,17.768288 843.905602,19.298683 841.782385,22.902321 C840.185461,25.610817 835.718665,32.459083 831.856299,38.120827 C827.993872,43.78257 822.457983,51.639992 819.554358,55.581886 C816.650732,59.523659 810.921301,67.173683 806.822302,72.581886 C802.723303,77.989967 796.160498,86.464943 792.238318,91.414894 C788.316077,96.364845 781.133887,104.406959 776.277869,109.286232 C771.421851,114.165504 764.934668,120.165626 761.861853,122.619972 C758.789099,125.074318 755.557288,127.655495 754.68009,128.356056 C753.802893,129.056618 750.392737,131.458107 747.101904,133.692848 C743.811133,135.927589 739.387671,138.728248 737.271948,139.916603 C735.156287,141.104957 731.141455,143.503151 728.350134,145.246071 C725.558813,146.988869 718.999976,150.514992 713.775,153.081764 C708.550024,155.648537 700.225012,159.334694 695.275,161.273292 C690.324988,163.212013 682.675024,166.11985 678.275,167.735329 C673.874976,169.350685 665.999976,171.817116 660.775,173.216286 C655.550024,174.615333 645.874976,176.900734 639.275,178.295021 C632.675024,179.689308 623.675024,181.292702 619.275,181.858131 C614.874976,182.423561 607.225012,183.368263 602.275,183.957374 C597.324988,184.546486 582.137488,185.263649 568.525,185.551002 Z" id="Face-Vector-path"></path>
        </g>
    </g>
</svg>