<?xml version="1.0" encoding="UTF-8"?>
<svg width="1000px" height="1009px" viewBox="0 0 1000 1009" version="1.1" xmlns="http://www.w3.org/2000/svg" xmlns:xlink="http://www.w3.org/1999/xlink">
    <title>Athena-with-Face-Vector - Sketch</title>
    <g id="Athena" stroke="none" stroke-width="1" fill="none" fill-rule="evenodd">
        <g id="Athena-Logo-Draft" transform="translate(-1000, -496)" fill="#C48D26">
            <path d="M1791.27,1504.48656 C1789.26285,1504.48656 1786.23396,1502.89634 1784.13017,1500.73805 C1782.12052,1498.67643 1774.64328,1488.81477 1767.51412,1478.8235 C1760.38496,1468.83206 1751.44051,1456.25768 1747.63757,1450.88001 C1743.83464,1445.50233 1735.99874,1434.66194 1730.22439,1426.79003 C1724.45013,1418.91811 1714.3554,1404.97382 1707.79176,1395.80253 C1701.22803,1386.63124 1695.02996,1379.11707 1694.01831,1379.10459 C1692.49728,1379.08562 1692.27726,1388.22529 1692.74755,1431.90164 C1693.06031,1460.95265 1693.78062,1485.74398 1694.34814,1486.99359 C1694.91574,1488.24321 1697.791,1490.85892 1700.73766,1492.80606 C1703.68423,1494.75353 1706.09511,1497.27323 1706.09511,1498.4057 C1706.09511,1499.53818 1704.51952,1501.06285 1702.59376,1501.79415 C1700.66809,1502.52528 1693.03006,1503.12347 1685.62039,1503.12347 C1678.21071,1503.12347 1670.57268,1502.52528 1668.64701,1501.79415 C1666.58113,1501.00977 1665.14566,1499.40107 1665.14566,1497.87008 C1665.14566,1496.26505 1666.72776,1494.62108 1669.29501,1493.55932 C1671.57709,1492.61537 1674.34121,1490.56424 1675.43743,1489.0013 C1677.12008,1486.60224 1677.4305,1475.59596 1677.4305,1418.33956 C1677.4305,1350.5194 1677.4305,1350.5194 1674.29847,1348.4701 C1672.57583,1347.34294 1669.04391,1345.7147 1666.44983,1344.85186 C1663.85566,1343.98903 1660.81186,1342.40604 1659.68574,1341.33413 C1657.87145,1339.60713 1657.94002,1339.16178 1660.28783,1337.42388 C1662.2075,1336.00288 1666.98461,1335.46252 1677.6272,1335.46252 C1685.70645,1335.46252 1693.7278,1336.13375 1695.45227,1336.95424 C1697.17674,1337.77464 1703.15245,1344.67532 1708.7316,1352.28908 C1714.31083,1359.90276 1727.77386,1378.09341 1738.64947,1392.7126 C1749.52517,1407.33178 1763.69477,1426.31115 1770.13753,1434.88891 C1776.58028,1443.46667 1782.61939,1450.72509 1783.55782,1451.01894 C1784.89756,1451.43826 1785.26405,1442.49509 1785.26405,1409.38325 C1785.26405,1386.18997 1784.86065,1363.35958 1784.36761,1358.64915 C1783.56265,1350.95776 1783.05653,1349.86031 1779.40364,1347.88514 C1777.16647,1346.67546 1773.88481,1344.45893 1772.11119,1342.95955 C1769.73946,1340.95451 1769.23334,1339.69249 1770.19793,1338.18871 C1771.21717,1336.5999 1775.24929,1336.03757 1788.28294,1335.66635 C1800.78346,1335.31035 1805.92556,1335.67093 1808.46873,1337.08178 C1810.34558,1338.1229 1811.88119,1339.83027 1811.88119,1340.87572 C1811.88119,1341.92125 1809.44482,1344.04461 1806.46708,1345.59431 C1802.67423,1347.56816 1800.68591,1349.69525 1799.82746,1352.69749 C1799.15338,1355.05454 1798.70342,1388.69785 1798.82747,1427.46026 C1799.026,1489.53459 1798.79673,1498.328 1796.90446,1501.2121 C1795.56439,1503.25458 1793.44427,1504.48656 1791.27,1504.48656 Z M1023.01935,1503.07214 C1009.83315,1503.07214 1003.38768,1502.54549 1001.72872,1501.33286 C1000.42015,1500.37622 999.696981,1498.69 1000.12168,1497.58549 C1000.54635,1496.48097 1004.39204,1493.73781 1008.6676,1491.48936 C1015.74988,1487.76494 1016.89667,1486.49226 1021.55993,1477.18122 C1024.37513,1471.56016 1030.01376,1458.68291 1034.0902,1448.56494 C1038.16664,1438.44698 1046.25914,1419.13109 1052.07353,1405.64053 C1057.88792,1392.14997 1065.05485,1375.2868 1068,1368.16683 C1070.94518,1361.04686 1075.40459,1350.77562 1077.90985,1345.34195 C1081.33903,1337.90426 1083.13642,1335.46252 1085.1822,1335.46252 C1086.67675,1335.46252 1088.78767,1336.35037 1089.87312,1337.43559 C1090.95857,1338.52073 1094.67381,1346.18955 1098.12922,1354.47732 C1101.58464,1362.76502 1109.03142,1380.5755 1114.67762,1394.05609 C1120.32383,1407.5365 1129.88165,1430.3747 1135.91718,1444.80759 C1141.95278,1459.24049 1148.53566,1474.41261 1150.54588,1478.5236 C1153.49874,1484.56218 1155.6409,1486.84806 1161.69746,1490.4231 C1165.8206,1492.85669 1169.41413,1495.89145 1169.68305,1497.16664 C1169.95201,1498.44182 1169.06805,1500.29222 1167.71875,1501.27863 C1165.88129,1502.62201 1158.40264,1503.06748 1137.92482,1503.05351 C1122.88745,1503.04319 1109.20409,1502.66526 1107.51734,1502.21314 C1105.76729,1501.74439 1104.45055,1500.33114 1104.45055,1498.92188 C1104.45055,1497.02924 1106.17859,1496.09339 1111.84243,1494.91768 C1115.90795,1494.07399 1119.97478,1492.49174 1120.87979,1491.40153 C1121.85272,1490.22948 1122.23256,1487.33611 1121.80913,1484.32231 C1121.41526,1481.51877 1118.52986,1472.63358 1115.39713,1464.5771 C1110.92186,1453.06817 1109.06564,1449.78989 1106.73515,1449.28005 C1105.10379,1448.92324 1092.22827,1448.49375 1078.12288,1448.32607 C1061.0193,1448.1228 1051.66084,1448.53051 1050.02727,1449.55036 C1048.68008,1450.39155 1045.93309,1455.18705 1043.9229,1460.20727 C1041.91268,1465.2275 1039.43832,1472.5193 1038.42428,1476.41139 C1037.41028,1480.30347 1036.89428,1485.12841 1037.27762,1487.13334 C1037.70286,1489.35718 1039.77389,1491.89024 1042.58914,1493.62986 C1045.12711,1495.19797 1047.20363,1497.32932 1047.20363,1498.36597 C1047.20363,1499.40261 1046.01722,1500.88573 1044.56718,1501.66155 C1043.11321,1502.43937 1033.44889,1503.07214 1023.01935,1503.07214 Z M1212.0531,1348.41608 C1196.2225,1347.7494 1189.31838,1348.23736 1186.4973,1349.07035 C1183.67622,1349.90334 1179.26189,1352.43686 1176.6877,1354.70042 C1173.98074,1357.08078 1170.89634,1361.79887 1169.37233,1365.89032 C1167.219,1371.67155 1166.14942,1372.96478 1163.5215,1372.96478 C1160.58751,1372.96478 1160.26892,1372.31517 1159.8853,1365.54936 C1159.65403,1361.47073 1160.17321,1353.92778 1161.03899,1348.78708 C1162.25884,1341.54422 1163.32456,1338.97358 1165.77374,1337.36645 C1168.48527,1335.58709 1176.73803,1335.32414 1223.85716,1335.51559 C1254.06471,1335.63837 1280.79977,1336.01595 1283.2684,1336.35474 C1286.21436,1336.75912 1288.20806,1337.99999 1289.06989,1339.96581 C1289.79209,1341.61306 1291.32404,1348.47443 1292.4742,1355.21327 C1293.62436,1361.95203 1294.38404,1369.31667 1294.16241,1371.57899 C1293.86365,1374.62893 1292.98112,1375.80329 1290.74879,1376.12127 C1288.20727,1376.4832 1287.09182,1375.10191 1283.5903,1367.25646 C1281.30894,1362.14481 1277.50239,1356.2954 1275.1313,1354.25742 C1272.76016,1352.21952 1267.70875,1349.86672 1263.9059,1349.02906 C1260.10305,1348.19141 1253.92761,1347.71078 1250.18274,1347.96109 C1243.37388,1348.41608 1243.37388,1348.41608 1242.99665,1416.60692 C1242.78915,1454.11189 1242.95032,1486.16392 1243.35476,1487.83339 C1243.91139,1490.13117 1245.92832,1491.40426 1251.65202,1493.07057 C1255.81111,1494.28156 1259.5795,1496.22623 1260.02625,1497.39226 C1260.49777,1498.6229 1259.77956,1500.28788 1258.31435,1501.36069 C1256.37052,1502.78427 1249.50983,1503.173 1228.47454,1503.05114 C1213.45095,1502.96407 1200.08652,1502.61229 1198.77582,1502.26918 C1197.46512,1501.92606 1196.39272,1500.53827 1196.39272,1499.18477 C1196.39272,1497.83161 1197.15872,1496.13666 1198.09493,1495.41863 C1199.03115,1494.70042 1201.92928,1493.53189 1204.53522,1492.82185 C1207.31225,1492.06535 1210.02046,1490.1375 1211.07853,1488.16436 C1212.52524,1485.46636 1212.80131,1471.25449 1212.46843,1416.60692 L1212.0531,1348.41608 Z M1363.05748,1408.3821 L1436.75135,1408.3821 L1437.13775,1381.12244 C1437.36169,1365.32385 1436.96129,1352.61211 1436.18549,1350.88817 C1435.30069,1348.92206 1432.2972,1347.11085 1427.32701,1345.54613 C1423.19109,1344.24404 1419.44091,1342.22544 1418.99324,1341.06028 C1418.52958,1339.85353 1419.20448,1338.19323 1420.56151,1337.20218 C1422.31953,1335.91832 1430.67283,1335.46252 1452.44541,1335.46252 C1475.11624,1335.46252 1482.53289,1335.89028 1484.47683,1337.30992 C1485.99995,1338.42225 1486.66998,1340.03297 1486.16079,1341.35827 C1485.69568,1342.56876 1483.59998,1343.93399 1481.50379,1344.39212 C1479.40751,1344.85016 1475.98009,1345.87256 1473.88731,1346.66412 C1471.79449,1347.45558 1469.49156,1349.20548 1468.76968,1350.55266 C1467.98051,1352.02537 1467.45713,1379.70422 1467.45713,1419.96745 C1467.45713,1462.751 1467.95831,1487.86802 1468.84502,1489.52284 C1469.60838,1490.94738 1472.83251,1492.78355 1476.0097,1493.60347 C1479.18694,1494.42305 1482.86116,1495.40536 1484.17471,1495.78603 C1485.48827,1496.16671 1486.56294,1497.59192 1486.56294,1498.95324 C1486.56294,1500.36797 1485.2473,1501.7807 1483.49236,1502.25022 C1481.80356,1502.70244 1467.83241,1503.07214 1452.44541,1503.07214 C1437.05841,1503.07214 1423.08726,1502.70244 1421.39846,1502.25022 C1419.70966,1501.79833 1418.32788,1500.37179 1418.32788,1499.08035 C1418.32788,1497.78875 1419.7122,1496.10216 1421.40412,1495.33215 C1423.09609,1494.56215 1426.41005,1493.50896 1428.7685,1492.99169 C1431.12695,1492.47441 1434.05297,1490.95137 1435.27078,1489.60736 C1437.20389,1487.47403 1437.43845,1483.11439 1437.11818,1455.26941 L1436.75135,1423.37491 L1399.90442,1423.37491 L1363.05748,1423.37491 L1362.69019,1454.58209 C1362.38629,1480.3999 1362.67454,1486.32535 1364.35909,1488.89325 C1365.76365,1491.03423 1368.70262,1492.47541 1373.83324,1493.53924 C1377.92414,1494.38728 1382.0077,1495.96772 1382.90787,1497.05085 C1384.18316,1498.58554 1384.16941,1499.47201 1382.84565,1501.06493 C1381.42114,1502.77931 1376.04892,1503.09543 1349.58456,1503.02289 C1332.22535,1502.97547 1316.64057,1502.38199 1314.95177,1501.70383 C1313.26296,1501.026 1311.88119,1499.82507 1311.88119,1499.0351 C1311.88119,1498.24529 1313.26296,1497.01974 1314.95177,1496.31179 C1316.64057,1495.60385 1320.62189,1494.36948 1323.79913,1493.56886 C1326.97632,1492.76807 1330.20045,1490.94738 1330.96381,1489.52284 C1331.85135,1487.86652 1332.35171,1462.40893 1332.35171,1418.90528 C1332.35171,1355.83688 1332.17762,1350.72262 1329.96348,1348.74886 C1328.64996,1347.57796 1324.81174,1345.89969 1321.4341,1345.01929 C1318.05645,1344.13889 1314.37178,1342.51103 1313.24589,1341.40169 C1311.42807,1339.6107 1311.50449,1339.15814 1313.92824,1337.36025 C1316.20073,1335.67449 1322.07268,1335.4032 1349.00362,1335.73979 C1369.87099,1336.00059 1381.8731,1336.66777 1382.8247,1337.6198 C1383.63604,1338.43148 1383.91336,1340.10152 1383.44096,1341.33098 C1382.96268,1342.57575 1380.37284,1343.93416 1377.59625,1344.39644 C1374.85402,1344.85307 1371.0751,1345.68173 1369.19864,1346.23794 C1367.32217,1346.79406 1365.00612,1348.8481 1364.05186,1350.80231 C1362.78444,1353.39775 1362.41661,1361.63671 1362.68716,1381.36868 L1363.05748,1408.3821 Z M1559.17385,1348.408 L1559.17385,1408.42281 L1574.16784,1408.81958 C1582.41451,1409.03786 1590.54155,1408.87269 1592.22794,1408.45278 C1593.91433,1408.03286 1596.78302,1405.32906 1598.60286,1402.44444 C1600.42278,1399.55965 1603.21851,1396.85735 1604.81572,1396.43943 C1606.93481,1395.88498 1608.04948,1396.48006 1608.9401,1398.64123 C1609.61132,1400.27027 1610.54213,1408.96843 1611.00852,1417.97062 C1611.68574,1431.04142 1611.46394,1434.86377 1609.90717,1436.94686 C1608.73377,1438.51713 1607.08748,1439.22126 1605.7714,1438.71593 C1604.56896,1438.25422 1602.02165,1434.78901 1600.11071,1431.01561 C1597.91716,1426.68393 1595.50987,1423.87473 1593.58063,1423.39488 C1591.89998,1422.97679 1583.47094,1422.81296 1574.84938,1423.03057 L1559.17385,1423.42651 L1558.79498,1455.47987 C1558.41885,1487.3088 1558.43765,1487.55089 1561.49087,1490.0494 C1564.27105,1492.32446 1566.78799,1492.51693 1587.76836,1492.05906 C1605.97464,1491.66162 1611.85189,1491.07138 1615.06052,1489.31829 C1617.30965,1488.08935 1621.11006,1485.03673 1623.50603,1482.53472 C1625.90192,1480.03272 1629.50898,1474.30277 1631.52159,1469.80159 C1633.53428,1465.30041 1636.02102,1460.71898 1637.04774,1459.62041 C1638.68338,1457.87049 1639.19654,1457.90546 1641.19159,1459.9018 C1643.23655,1461.94809 1643.30852,1463.6111 1641.89809,1476.22069 C1641.03443,1483.94299 1639.66618,1492.59219 1638.8576,1495.44102 C1637.85999,1498.95618 1636.29016,1501.03843 1633.97305,1501.91989 C1631.98341,1502.6768 1606.84837,1503.15299 1573.73829,1503.06075 C1542.48716,1502.97367 1515.89684,1502.63185 1514.64873,1502.30117 C1513.40062,1501.97017 1511.98711,1500.67663 1511.50757,1499.42638 C1510.97686,1498.04242 1511.56664,1496.47199 1513.01517,1495.41205 C1514.32377,1494.45467 1516.83863,1493.67112 1518.60364,1493.67112 C1520.36865,1493.67112 1523.31838,1492.16462 1525.1586,1490.32312 C1528.50434,1486.97513 1528.50434,1486.97513 1528.50434,1418.74601 C1528.50434,1350.51682 1528.50434,1350.51682 1525.43739,1348.59148 C1523.75058,1347.53246 1520.12447,1345.9542 1517.3794,1345.08415 C1514.63434,1344.21402 1511.99402,1342.47392 1511.51206,1341.21717 C1510.97112,1339.8065 1511.57696,1338.24164 1513.09537,1337.1275 C1515.04566,1335.69643 1526.56279,1335.3571 1568.71548,1335.48855 C1597.95376,1335.5798 1623.89722,1335.94843 1626.36766,1336.30774 C1629.47096,1336.75904 1631.23257,1337.94336 1632.06694,1340.13933 C1632.7311,1341.88742 1633.71015,1349.25591 1634.24253,1356.51367 C1634.87365,1365.11667 1634.71683,1370.2036 1633.7921,1371.12901 C1633.01189,1371.90989 1631.06592,1372.13317 1629.46764,1371.62551 C1627.84048,1371.10886 1625.31289,1368.04442 1623.72393,1364.66179 C1622.16316,1361.33919 1619.08772,1357.10649 1616.88959,1355.25567 C1614.69146,1353.40493 1610.31375,1351.10706 1607.16136,1350.14926 C1603.57069,1349.05844 1593.53737,1348.408 1580.30174,1348.408 L1559.17385,1348.408 Z M1941.02756,1449.13092 C1896.73196,1448.4988 1882.97802,1448.85754 1881.8853,1449.52 C1880.79266,1450.1828 1877.86222,1455.89691 1875.37319,1462.21832 C1872.88415,1468.53972 1870.16096,1476.20622 1869.32167,1479.25481 C1868.48239,1482.30341 1868.18983,1486.37354 1868.67161,1488.29958 C1869.21759,1490.48234 1871.13954,1492.46339 1873.77378,1493.55828 C1876.09818,1494.5243 1878.34898,1496.22713 1878.77544,1497.34252 C1879.20455,1498.46457 1878.42407,1500.19707 1877.02834,1501.22111 C1875.18372,1502.5747 1869.54578,1503.0488 1856.05299,1502.98545 C1845.90398,1502.93794 1836.17685,1502.32632 1834.43714,1501.62652 C1832.47972,1500.83903 1831.44739,1499.45043 1831.7289,1497.98364 C1831.98208,1496.66438 1835.69083,1493.92635 1840.09285,1491.8086 C1847.82236,1488.09021 1848.13626,1487.7178 1853.92313,1475.39539 C1857.17977,1468.4607 1864.07231,1452.64728 1869.23985,1440.25452 C1874.40739,1427.86177 1884.34916,1404.20264 1891.33258,1387.67891 C1898.316,1371.15518 1905.88686,1353.41279 1908.15677,1348.25154 C1910.42659,1343.09019 1913.27821,1337.63513 1914.49353,1336.12908 C1916.00672,1334.25388 1917.58312,1333.67094 1919.49444,1334.27964 C1921.24711,1334.83783 1923.83507,1338.58598 1926.45036,1344.35377 C1928.74096,1349.4056 1936.46864,1367.8312 1943.62292,1385.29961 C1950.77729,1402.76803 1962.22552,1430.72866 1969.06349,1447.43442 C1975.90146,1464.14019 1982.96197,1480.10931 1984.75351,1482.9212 C1986.54505,1485.73308 1990.48356,1489.6 1993.50579,1491.51454 C1996.52802,1493.42892 1999.37722,1495.97958 1999.8374,1497.18265 C2000.33737,1498.49007 1999.65898,1500.11506 1998.15135,1501.22111 C1996.22525,1502.63438 1989.11308,1503.07214 1968.07826,1503.07214 C1952.92551,1503.07214 1938.96864,1502.47735 1937.06297,1501.75021 C1934.77985,1500.87937 1933.86605,1499.72748 1934.38388,1498.37338 C1934.81606,1497.24316 1937.40718,1495.97441 1940.14184,1495.55417 C1942.8765,1495.13392 1947.25742,1493.71831 1949.8772,1492.40838 C1954.00909,1490.34248 1954.62244,1489.39796 1954.50457,1485.28333 C1954.42981,1482.67431 1951.36696,1473.47268 1947.69808,1464.83533 L1941.02756,1449.13092 Z M1078.91359,1435.17963 C1102.29107,1435.17963 1102.29107,1435.17963 1101.68078,1432.10044 C1101.34512,1430.40682 1096.62466,1417.9362 1091.19086,1404.38773 C1085.75707,1390.83926 1080.71521,1379.13844 1079.98672,1378.38568 C1079.10958,1377.4794 1078.06438,1377.83105 1076.89242,1379.42678 C1075.91906,1380.75221 1070.9094,1392.4532 1065.75988,1405.42883 C1060.61034,1418.4048 1056.20337,1430.40682 1055.9666,1432.10044 C1055.53611,1435.17963 1055.53611,1435.17963 1078.91359,1435.17963 Z M1911.50561,1435.17963 C1934.09293,1435.17963 1934.09293,1435.17963 1933.28561,1431.45091 C1932.84164,1429.40018 1930.11442,1421.9257 1927.22523,1414.84116 C1924.33603,1407.75663 1919.6587,1396.59795 1916.83117,1390.04405 C1914.00364,1383.49033 1911.0099,1378.34612 1910.17833,1378.61244 C1909.34684,1378.87875 1903.93577,1390.95273 1898.15382,1405.44323 C1892.37187,1419.93389 1887.92853,1432.55258 1888.27972,1433.48476 C1888.75539,1434.74731 1894.68028,1435.17963 1911.50561,1435.17963 Z M1558.5802,1231.50212 C1557.58465,1231.50212 1551.56381,1228.01416 1545.20058,1223.75113 C1538.83735,1219.48809 1528.11279,1212.57362 1521.36818,1208.38567 C1514.62356,1204.19781 1502.97382,1197.28916 1495.47982,1193.03328 C1487.98582,1188.77731 1471.12432,1180.13532 1458.00982,1173.82871 C1444.89532,1167.52217 1425.58126,1158.65151 1415.08965,1154.11615 C1404.59803,1149.58079 1388.04311,1143.15875 1378.30092,1139.84492 C1368.55873,1136.53116 1351.39065,1131.48515 1340.14966,1128.63174 C1328.90866,1125.77824 1318.92251,1122.7295 1317.95823,1121.8568 C1316.99395,1120.9841 1316.56471,1119.39487 1317.00439,1118.32518 C1317.44407,1117.2555 1320.07245,1114.79274 1322.84527,1112.85226 C1325.6181,1110.91188 1332.54605,1104.42498 1338.24073,1098.43684 C1343.93545,1092.44879 1351.98132,1083.00104 1356.12047,1077.44189 C1360.25963,1071.88274 1367.21195,1061.22204 1371.57003,1053.75144 C1375.92811,1046.28092 1382.49671,1033.40633 1386.16695,1025.14128 C1389.83719,1016.87631 1395.92249,1002.45058 1399.68986,993.084159 C1403.45724,983.717739 1409.17296,968.697375 1412.39146,959.705644 C1415.60996,950.713914 1421.61521,934.467367 1425.73653,923.602353 C1429.85784,912.737339 1437.00838,895.906555 1441.62664,886.200618 C1446.24494,876.494766 1453.32379,863.491042 1457.35749,857.303583 C1461.39115,851.116042 1469.47282,841.039657 1475.31674,834.91157 C1481.16062,828.783483 1493.36115,817.57072 1502.42893,809.994265 C1511.49679,802.417975 1529.85864,787.942599 1543.2331,777.826799 C1556.60749,767.710998 1574.888,752.384129 1583.85631,743.76709 C1592.82463,735.15005 1604.81343,722.470957 1610.49813,715.591662 C1616.18283,708.712198 1624.78631,696.757208 1629.61701,689.025089 C1634.44763,681.292803 1641.33869,668.054752 1644.93034,659.606846 C1648.52208,651.159108 1653.0415,637.9781 1654.97354,630.315496 C1656.90551,622.653061 1658.9178,614.857079 1659.44514,612.991113 C1659.97256,611.12498 1661.40363,609.405862 1662.62539,609.170537 C1663.98269,608.909269 1667.33209,611.7937 1671.23743,616.587338 C1674.7524,620.901845 1679.9521,629.058381 1682.79229,634.71299 C1685.63247,640.367435 1689.49341,649.898499 1691.37215,655.893041 C1693.2508,661.887582 1696.33033,673.842574 1698.21548,682.459614 C1700.10062,691.076653 1702.37239,704.315203 1703.2639,711.878355 C1704.51791,722.516526 1704.51667,730.253135 1703.25841,746.052483 C1701.82576,764.041598 1701.89753,767.511929 1703.86093,775.174699 C1705.22355,780.493201 1709.04864,788.65589 1713.70287,796.177464 C1717.88997,802.944171 1725.1971,814.109536 1729.94098,820.989498 C1734.68477,827.869458 1740.74096,837.816623 1743.39902,843.094381 C1746.20553,848.666586 1748.23197,854.703787 1748.23197,857.492508 C1748.23197,860.50275 1747.19933,863.327396 1745.46471,865.061813 C1743.94274,866.583606 1740.72375,868.695956 1738.31135,869.755998 C1735.89903,870.815958 1730.74092,872.673941 1726.84897,873.884907 C1722.95702,875.095789 1718.20516,877.319399 1716.28924,878.826308 C1713.72732,880.841286 1712.80579,882.839467 1712.80579,886.379482 C1712.80579,889.026842 1713.76075,894.877696 1714.92786,899.381211 C1716.54846,905.634776 1716.70714,908.578495 1715.59941,911.839364 C1714.80171,914.187788 1711.68991,918.254995 1708.68439,920.877576 C1703.53268,925.372943 1703.29616,925.907537 1704.55218,930.216223 C1705.494,933.446823 1705.40119,935.908419 1704.23566,938.613987 C1703.32868,940.719103 1699.34733,945.456613 1695.38818,949.141813 C1688.18966,955.842163 1688.18966,955.842163 1688.57545,978.209728 C1688.9585,1000.41722 1688.93339,1000.63409 1685.06547,1008.51023 C1682.53914,1013.65469 1679.2171,1017.85744 1675.61464,1020.4668 C1672.55931,1022.67985 1666.66662,1025.47672 1662.51985,1026.68203 C1656.42532,1028.45354 1650.92408,1028.72753 1633.81941,1028.11128 C1619.48025,1027.59464 1606.50929,1026.18602 1593.58308,1023.74172 C1583.09146,1021.75776 1570.34421,1019.78827 1565.25587,1019.3651 C1556.00422,1018.5956 1556.00422,1018.5956 1550.15968,1024.69475 C1546.56262,1028.44838 1542.88831,1034.35719 1540.60506,1040.06011 C1538.56457,1045.15652 1535.69095,1054.39571 1534.2193,1060.59157 C1532.74764,1066.78742 1530.9371,1079.72878 1530.19595,1089.35015 C1529.45471,1098.97152 1529.20406,1114.20052 1529.63884,1123.19225 C1530.07361,1132.18398 1531.63176,1145.97816 1533.1015,1153.84599 C1534.57116,1161.71381 1537.33409,1173.66872 1539.24127,1180.41256 C1541.14845,1187.1564 1546.46624,1200.33749 1551.05859,1209.70391 C1555.65094,1219.07033 1559.62922,1227.80661 1559.89925,1229.11794 C1560.1712,1230.4385 1559.58273,1231.50212 1558.5802,1231.50212 Z M1311.76358,856.642944 C1310.59146,856.868254 1308.76837,856.011627 1307.71231,854.73927 C1306.50564,853.285553 1305.81556,849.344033 1305.8551,844.131821 C1305.88968,839.570115 1307.31746,829.712537 1309.02789,822.226117 C1310.73836,814.739697 1313.37955,804.33604 1314.89721,799.106712 C1316.54123,793.442216 1317.36269,787.665064 1316.92942,784.814456 C1316.52941,782.18301 1313.76009,774.478259 1310.77532,767.693025 C1307.79059,760.907627 1303.78115,750.69555 1301.8655,744.999317 C1299.94982,739.303252 1297.4416,728.361907 1296.29166,720.685401 C1295.14171,713.008731 1294.20085,703.520937 1294.20085,699.601101 C1294.20085,695.681264 1295.07042,687.979504 1296.13326,682.485985 C1297.1961,676.992466 1299.72684,667.903783 1301.75709,662.288969 C1303.78739,656.674154 1306.98665,649.017588 1308.86663,645.274378 C1310.7466,641.531168 1313.89222,636.190847 1315.85689,633.4072 C1317.82155,630.623387 1320.29149,628.002741 1321.34563,627.583691 C1322.39977,627.164641 1324.65138,628.12437 1326.34925,629.71633 C1328.04711,631.308457 1330.79912,635.766646 1332.4649,639.623342 C1334.13068,643.480037 1336.94124,650.876066 1338.71064,656.058705 C1340.48005,661.241508 1342.85776,670.832154 1343.99438,677.371306 C1345.65575,686.928887 1345.78023,691.774057 1344.62916,702.077853 C1343.84161,709.127277 1341.74335,721.281411 1339.96629,729.086855 C1338.18923,736.892132 1336.28333,745.042686 1335.73091,747.199085 C1335.05856,749.823553 1335.21928,750.948609 1336.21712,750.602003 C1337.03692,750.317209 1340.95888,745.756335 1344.93258,740.466524 C1348.90628,735.176715 1357.47043,724.457524 1363.96404,716.646098 C1370.45765,708.834674 1380.58304,697.791806 1386.46485,692.106374 C1392.3467,686.421108 1402.06837,677.524836 1408.06858,672.337048 C1414.06878,667.149094 1424.19417,658.979099 1430.56939,654.18145 C1436.9446,649.383801 1446.65045,642.800118 1452.1379,639.551228 C1457.62536,636.302339 1466.83023,631.294333 1472.59319,628.422457 C1478.35614,625.550581 1488.90106,621.286464 1496.02628,618.946792 C1503.15151,616.60712 1513.89053,613.764155 1519.89078,612.628963 C1525.89103,611.49377 1535.0959,610.5686 1540.34606,610.5686 C1545.59621,610.5686 1555.41477,611.192194 1562.16502,611.95004 C1568.91528,612.707722 1576.89281,613.991127 1579.89293,614.801978 C1582.89306,615.612996 1588.26257,617.516836 1591.82518,619.032862 C1596.91403,621.198235 1598.30269,622.470341 1598.30269,624.966534 C1598.30269,627.011276 1596.54173,629.498497 1593.36182,631.945008 C1590.64436,634.03561 1586.78286,637.277521 1584.78061,639.149126 C1582.77845,641.020731 1577.79131,644.830404 1573.69817,647.615047 C1569.60503,650.399858 1561.54711,654.837608 1555.79164,657.476698 C1550.03618,660.115952 1540.83131,663.350386 1535.33636,664.664199 C1528.37777,666.328106 1520.37894,667.003207 1508.9813,666.889056 C1495.99441,666.758787 1489.52123,665.945111 1477.61653,662.94629 C1469.36625,660.867819 1460.46817,658.933073 1457.84309,658.646451 C1454.55245,658.287217 1451.51907,659.08893 1448.07544,661.228049 C1445.3283,662.934493 1438.88488,667.777004 1433.75674,671.988947 C1428.62856,676.201054 1419.52353,683.916108 1413.52332,689.133639 C1407.52311,694.351004 1398.51587,703.197593 1393.50722,708.792635 C1388.49856,714.387677 1381.7483,722.260747 1378.50668,726.288419 C1375.26501,730.316092 1371.48458,735.317617 1370.10566,737.403068 C1368.72679,739.488518 1367.80781,741.821211 1368.06346,742.586868 C1368.31915,743.352524 1371.59515,741.924396 1375.34346,739.413248 C1379.09176,736.901935 1386.76099,732.333085 1392.3862,729.259991 C1398.0114,726.186896 1406.90944,722.056039 1412.15963,720.080253 C1417.40983,718.104468 1426.20845,715.62489 1431.71213,714.569953 C1437.21577,713.515181 1446.72748,712.660131 1452.84925,712.670101 C1458.97098,712.679904 1469.50259,713.829054 1476.25285,715.223784 C1483.00311,716.618349 1490.82723,718.722908 1493.63983,719.900471 C1497.09807,721.348207 1498.75365,722.911421 1498.75365,724.728693 C1498.75365,726.206836 1497.09474,729.383944 1495.06719,731.789083 C1493.03964,734.194388 1489.51107,736.959259 1487.226,737.933278 C1484.94093,738.907462 1478.50845,743.441087 1472.93169,748.007942 C1467.35493,752.574798 1458.89923,758.165853 1454.14128,760.432415 C1449.38328,762.698978 1439.58591,766.04856 1432.36929,767.8758 C1425.15264,769.703041 1414.27811,771.547063 1408.20362,771.973425 C1401.03524,772.476718 1393.19601,772.032411 1385.86687,770.707466 C1379.65612,769.584736 1370.23575,767.011113 1364.93266,764.98847 C1355.29073,761.310893 1355.29073,761.310893 1352.11728,764.54516 C1350.37189,766.324049 1345.56474,774.210911 1341.43473,782.071684 C1337.30472,789.932457 1331.0549,803.386779 1327.54622,811.970008 C1324.03754,820.553403 1319.53061,834.024091 1317.53078,841.90472 C1315.01507,851.818377 1313.23809,856.359561 1311.76358,856.642944 Z M1372.1542,684.118812 C1371.11626,684.118812 1369.69993,682.632866 1369.00679,680.816654 C1368.31365,679.000276 1366.79282,672.505549 1365.62716,666.383763 C1364.46151,660.261811 1363.50778,649.297456 1363.50778,642.018327 C1363.50778,633.31685 1364.43847,625.0984 1366.22501,618.024172 C1367.71947,612.106456 1371.66856,601.755642 1375.00077,595.022474 C1378.66015,587.62811 1385.01843,578.056716 1391.05732,570.851977 C1396.7875,564.015528 1405.71801,555.452034 1411.97829,550.790789 C1417.98589,546.317674 1423.51565,542.665989 1424.26659,542.676096 C1425.01752,542.686246 1426.46868,543.22274 1427.49133,543.868162 C1428.65786,544.60441 1429.86072,549.792021 1430.71941,557.789963 C1431.71318,567.045537 1431.62756,574.45086 1430.4069,584.820603 C1429.48221,592.676076 1427.22353,604.293159 1425.38757,610.636285 C1423.55165,616.979577 1419.53268,626.576542 1416.45652,631.962909 C1413.38032,637.349278 1407.74098,645.932034 1403.92455,651.03546 C1400.10817,656.138886 1391.82318,665.670429 1385.51352,672.216629 C1379.20387,678.76283 1373.19218,684.118812 1372.1542,684.118812 Z M1464.0888,614.907668 C1461.45671,615.911441 1460.12471,615.711688 1458.48551,614.067603 C1456.91797,612.495275 1456.54435,610.378592 1457.10693,606.258367 C1457.53138,603.149591 1458.44683,596.607294 1459.14126,591.720097 C1459.83568,586.832899 1462.5891,577.118747 1465.25996,570.133389 C1468.44324,561.807665 1473.04486,553.374469 1478.61816,545.652344 C1483.29436,539.173128 1490.80013,530.284523 1495.29769,525.899795 C1500.99585,520.344418 1507.40059,515.983053 1516.42265,511.514386 C1523.54377,507.987247 1531.91508,504.163065 1535.02545,503.016109 C1539.74103,501.277072 1541.04229,501.231681 1542.85755,502.742763 C1544.67697,504.25735 1544.89201,506.492018 1544.16705,516.35319 C1543.60006,524.066805 1541.94077,531.937785 1539.37452,539.08802 C1537.21562,545.103147 1534.08147,552.271071 1532.4097,555.016885 C1530.73802,557.762701 1526.80886,563.365306 1523.67837,567.467341 C1520.54787,571.569377 1512.724,579.730892 1506.2919,585.604007 C1499.85979,591.477122 1491.38159,598.096516 1487.45144,600.313995 C1483.52129,602.531473 1478.77251,605.736036 1476.89852,607.435358 C1475.02453,609.13468 1472.15262,611.214818 1470.5165,612.057887 C1468.88038,612.900956 1465.98791,614.183416 1464.0888,614.907668 Z M1565.64284,582.595086 C1557.02378,583.334651 1555.08692,583.112231 1553.50419,581.201256 C1551.89561,579.25896 1551.92612,578.290144 1553.71376,574.557328 C1554.86471,572.153699 1559.3427,565.580745 1563.66466,559.950783 C1567.9867,554.320822 1575.57187,545.149142 1580.52064,539.569162 C1585.4694,533.989182 1594.04515,525.817142 1599.57783,521.408904 C1605.11042,517.000834 1613.96491,511.210097 1619.25434,508.540897 C1624.54377,505.871696 1633.6558,502.252673 1639.50337,500.498809 C1645.35086,498.744942 1655.27965,496.89178 1661.5674,496.380466 C1667.85506,495.869151 1675.8139,495.873816 1679.25359,496.390795 C1682.69337,496.907608 1686.41139,498.236128 1687.51578,499.342727 C1689.03998,500.870173 1689.19917,502.210855 1688.17633,504.906546 C1687.43522,506.859838 1683.3442,513.441456 1679.08509,519.532416 C1674.82606,525.623212 1666.10865,535.859006 1659.71317,542.278682 C1652.40133,549.617858 1643.78751,556.540185 1636.50784,560.92693 C1630.14046,564.763874 1620.33396,569.730576 1614.71566,571.963768 C1609.09736,574.197125 1598.0651,577.304667 1590.19945,578.869767 C1582.3338,580.434701 1571.28333,582.11126 1565.64284,582.595086 Z" id="Athena-with-Face-Vector"></path>
        </g>
    </g>
</svg>