<?xml version="1.0" encoding="UTF-8"?>
<!-- Generated by Pixelmator Pro 3.7 -->
<svg width="1074" height="1659" viewBox="0 0 1074 1659" xmlns="http://www.w3.org/2000/svg">
    <path id="Athena-with-Face-Vector" fill="#ffffff" fill-rule="evenodd" stroke="none" d="M 739.400024 1129 C 737.929565 1129 735.710571 1127.833374 734.169312 1126.25 C 732.697021 1124.737549 727.219116 1117.502808 721.996216 1110.172974 C 716.773315 1102.843018 710.22052 1093.618164 707.434448 1089.672974 C 704.648376 1085.727783 698.907715 1077.775024 694.677368 1072 C 690.447083 1066.224976 683.051575 1055.995117 678.242981 1049.266846 C 673.434326 1042.538574 668.893555 1037.026001 668.152405 1037.016846 C 667.038086 1037.00293 666.876892 1043.708008 667.221436 1075.75 C 667.450562 1097.0625 667.978271 1115.25 668.394043 1116.166748 C 668.809875 1117.083496 670.916321 1119.002441 673.075073 1120.430908 C 675.233765 1121.859619 677 1123.70813 677 1124.53894 C 677 1125.369751 675.845703 1126.488281 674.434875 1127.02478 C 673.024109 1127.561157 667.428406 1128 662 1128 C 656.571594 1128 650.975891 1127.561157 649.565125 1127.02478 C 648.051636 1126.449341 647 1125.269165 647 1124.145996 C 647 1122.968506 648.159058 1121.762451 650.039856 1120.983521 C 651.711731 1120.291016 653.736755 1118.786255 654.539856 1117.639648 C 655.772583 1115.879639 656 1107.805176 656 1065.800537 C 656 1016.046082 656 1016.046082 653.705444 1014.542664 C 652.44342 1013.715759 649.855896 1012.52124 647.955444 1011.888245 C 646.054932 1011.255249 643.825012 1010.093933 643 1009.307556 C 641.670837 1008.040588 641.721069 1007.713867 643.441101 1006.438904 C 644.847473 1005.396423 648.347229 1005 656.144104 1005 C 662.063049 1005 667.939575 1005.492432 669.202942 1006.09436 C 670.466309 1006.696228 674.844177 1011.758728 678.931519 1017.34436 C 683.018921 1022.929932 692.88208 1036.275024 700.84967 1047 C 708.817322 1057.724976 719.19812 1071.648682 723.918152 1077.941528 C 728.638184 1084.234375 733.0625 1089.559326 733.75 1089.774902 C 734.731506 1090.08252 735 1083.521606 735 1059.22998 C 735 1042.214844 734.704468 1025.465942 734.343262 1022.010254 C 733.75354 1016.367676 733.382751 1015.562561 730.706604 1014.113525 C 729.067627 1013.226074 726.663452 1011.599976 725.364075 1010.5 C 723.626526 1009.029053 723.255737 1008.10321 723.962402 1007 C 724.709106 1005.834412 727.663086 1005.421875 737.21167 1005.149536 C 746.36969 1004.888367 750.136841 1005.152893 752 1006.187927 C 753.375 1006.951721 754.5 1008.204285 754.5 1008.971252 C 754.5 1009.738281 752.715088 1011.296021 750.533569 1012.432922 C 747.754883 1013.880981 746.298218 1015.441467 745.669312 1017.643982 C 745.175476 1019.373169 744.845825 1044.054688 744.936707 1072.491699 C 745.082153 1118.030884 744.914185 1124.481934 743.527893 1126.597778 C 742.546143 1128.096191 740.99292 1129 739.400024 1129 Z M 176.256866 1128 C 166.582626 1128 161.853821 1127.613525 160.636703 1126.723633 C 159.676651 1126.021606 159.146088 1124.78418 159.457672 1123.973633 C 159.769241 1123.163086 162.590683 1121.150024 165.727509 1119.5 C 170.923523 1116.766846 171.764877 1115.832886 175.186142 1109 C 177.251556 1104.875 181.388412 1095.425049 184.37915 1088 C 187.369888 1080.574951 193.307068 1066.400024 197.572876 1056.5 C 201.838684 1046.599976 207.096802 1034.224976 209.257553 1029 C 211.41832 1023.775024 214.690033 1016.237488 216.528046 1012.25 C 219.043915 1006.79187 220.362595 1005 221.86351 1005 C 222.960007 1005 224.508713 1005.65155 225.305069 1006.447937 C 226.101425 1007.244263 228.827164 1012.872009 231.362274 1018.953979 C 233.897385 1025.035889 239.360825 1038.106079 243.503235 1047.998779 C 247.64566 1057.891357 254.657883 1074.651123 259.085938 1085.242676 C 263.514038 1095.834229 268.343658 1106.968262 269.818481 1109.985107 C 271.984894 1114.416504 273.556519 1116.093994 278 1118.717529 C 281.024994 1120.503418 283.661438 1122.730469 283.858734 1123.66626 C 284.056061 1124.602051 283.407532 1125.959961 282.417603 1126.683838 C 281.069519 1127.669678 275.582703 1127.996582 260.558868 1127.986328 C 249.526489 1127.97876 239.487503 1127.701416 238.25 1127.369629 C 236.966049 1127.025635 236 1125.988525 236 1124.954346 C 236 1123.56543 237.267807 1122.878662 241.423157 1122.015869 C 244.405884 1121.396729 247.389572 1120.235596 248.053543 1119.435547 C 248.767349 1118.575439 249.046021 1116.452148 248.735367 1114.240479 C 248.446396 1112.183105 246.329483 1105.66272 244.031113 1099.750488 C 240.747772 1091.304688 239.385925 1088.898926 237.676132 1088.52478 C 236.479263 1088.262939 227.032959 1087.947754 216.684341 1087.824707 C 204.136063 1087.675537 197.270096 1087.974731 196.071609 1088.723145 C 195.083221 1089.340454 193.067856 1092.859619 191.593048 1096.543701 C 190.118225 1100.227783 188.302872 1105.578857 187.558914 1108.435059 C 186.814972 1111.29126 186.436401 1114.832031 186.717651 1116.303345 C 187.029633 1117.935303 188.549072 1119.794189 190.614517 1121.070801 C 192.476532 1122.221558 194 1123.785645 194 1124.546387 C 194 1125.307129 193.129578 1126.395508 192.065735 1126.964844 C 190.999008 1127.535645 183.908646 1128 176.256866 1128 Z M 314.5 1014.5 C 302.875 1014.011169 297.805054 1014.368958 295.733429 1014.979736 C 293.661804 1015.590515 290.420197 1017.448181 288.529877 1019.10791 C 286.542053 1020.853271 284.277069 1024.312744 283.157928 1027.312744 C 281.57666 1031.551758 280.791229 1032.5 278.86145 1032.5 C 276.706909 1032.5 276.472961 1032.023682 276.191254 1027.062744 C 276.021423 1024.072144 276.402679 1018.541382 277.038452 1014.772034 C 277.934235 1009.461304 278.716827 1007.576416 280.51535 1006.39801 C 282.506531 1005.093323 288.566833 1004.900513 323.168152 1005.040894 C 345.350677 1005.13092 364.983215 1005.407776 366.796021 1005.656189 C 368.959351 1005.952698 370.423401 1006.862549 371.056274 1008.303955 C 371.586609 1009.51178 372.711578 1014.542786 373.556183 1019.483948 C 374.400787 1024.425049 374.958649 1029.825073 374.795898 1031.483887 C 374.576508 1033.720215 373.928436 1034.581299 372.289154 1034.814453 C 370.422821 1035.079834 369.603699 1034.067017 367.03241 1028.314453 C 365.357117 1024.566406 362.561829 1020.277405 360.820648 1018.783081 C 359.079437 1017.288818 355.369995 1015.56366 352.577423 1014.949463 C 349.784851 1014.335266 345.25 1013.982849 342.5 1014.166382 C 337.5 1014.5 337.5 1014.5 337.222992 1064.5 C 337.070618 1092 337.188965 1115.501709 337.485962 1116.72583 C 337.894714 1118.410645 339.375824 1119.344116 343.578949 1120.565918 C 346.633118 1121.453857 349.400391 1122.879761 349.728455 1123.734741 C 350.074707 1124.637085 349.547302 1125.85791 348.471344 1126.644531 C 347.043915 1127.688354 342.005859 1127.973389 326.558868 1127.884033 C 315.526489 1127.82019 305.712494 1127.562256 304.75 1127.310669 C 303.787506 1127.059082 303 1126.041504 303 1125.049072 C 303 1124.056885 303.5625 1122.814087 304.25 1122.287598 C 304.9375 1121.760986 307.065704 1120.904175 308.97934 1120.383545 C 311.018616 1119.828857 313.007355 1118.415283 313.784332 1116.968506 C 314.84671 1114.990234 315.049438 1104.56958 314.804993 1064.5 L 314.5 1014.5 Z M 425.5 1058.5 L 479.5 1058.5 L 479.783142 1038.5 C 479.947235 1026.908813 479.653839 1017.582397 479.085358 1016.317566 C 478.437012 1014.875061 476.236176 1013.546204 472.594208 1012.398193 C 469.563568 1011.442871 466.815582 1009.961853 466.487549 1009.106995 C 466.147797 1008.221619 466.642334 1007.003479 467.636719 1006.276367 C 468.924927 1005.334412 475.045898 1005 491 1005 C 507.612305 1005 513.046936 1005.313843 514.471375 1006.355408 C 515.587463 1007.171509 516.07843 1008.353271 515.705322 1009.325623 C 515.364502 1010.213745 513.828857 1011.215393 512.292847 1011.551514 C 510.756775 1011.887573 508.2453 1012.637695 506.711792 1013.218445 C 505.178253 1013.799133 503.490753 1015.083008 502.961792 1016.071411 C 502.383514 1017.151917 502 1037.459473 502 1067 C 502 1098.389648 502.367249 1116.817627 503.016998 1118.031738 C 503.576355 1119.076904 505.938873 1120.424072 508.266998 1121.025635 C 510.595154 1121.626953 513.287476 1122.347656 514.25 1122.626953 C 515.212524 1122.90625 516 1123.951904 516 1124.950684 C 516 1125.988647 515.03595 1127.025146 513.75 1127.369629 C 512.512512 1127.701416 502.274994 1127.972656 491 1127.972656 C 479.725006 1127.972656 469.487488 1127.701416 468.25 1127.369629 C 467.012512 1127.038086 466 1125.991455 466 1125.043945 C 466 1124.096313 467.014374 1122.858887 468.25415 1122.293945 C 469.493958 1121.729004 471.922302 1120.956299 473.650482 1120.576782 C 475.378662 1120.197266 477.522736 1119.079834 478.4151 1118.09375 C 479.831604 1116.528564 480.003479 1113.329956 479.768799 1092.900513 L 479.5 1069.5 L 452.5 1069.5 L 425.5 1069.5 L 425.230865 1092.39624 C 425.008179 1111.338379 425.219391 1115.685791 426.453766 1117.569824 C 427.482971 1119.140625 429.636536 1120.197998 433.396057 1120.978516 C 436.393707 1121.600708 439.385986 1122.760254 440.045593 1123.554932 C 440.980072 1124.680908 440.970001 1125.331299 440 1126.5 C 438.956177 1127.757813 435.019623 1127.989746 415.627563 1127.936523 C 402.90741 1127.901733 391.487488 1127.466309 390.25 1126.96875 C 389.012512 1126.471436 388 1125.590332 388 1125.010742 C 388 1124.431274 389.012512 1123.532104 390.25 1123.012695 C 391.487488 1122.493286 394.404846 1121.587646 396.733002 1121.000244 C 399.061127 1120.41272 401.423645 1119.076904 401.983002 1118.031738 C 402.633362 1116.816528 403 1098.138672 403 1066.220703 C 403 1019.948364 402.872437 1016.196106 401.25 1014.747986 C 400.287506 1013.888916 397.475006 1012.657593 395 1012.011658 C 392.524994 1011.365723 389.825012 1010.171387 389 1009.357483 C 387.667969 1008.043457 387.723969 1007.711426 389.5 1006.392334 C 391.165192 1005.155518 395.467926 1004.956482 415.201874 1005.20343 C 430.492676 1005.394775 439.287354 1005.884277 439.98465 1006.582764 C 440.579163 1007.178284 440.782379 1008.403564 440.436218 1009.305603 C 440.085754 1010.218872 438.188019 1011.215515 436.153442 1011.554688 C 434.144043 1011.889709 431.375 1012.497681 430 1012.905762 C 428.625 1013.313782 426.927887 1014.820801 426.228638 1016.254578 C 425.299927 1018.158813 425.030396 1024.203613 425.228638 1038.680664 L 425.5 1058.5 Z M 569.5 1014.5 L 569.5 1058.5 L 580.5 1058.790894 C 586.549988 1058.950928 592.512207 1058.829834 593.74939 1058.521973 C 594.986572 1058.214111 597.091125 1056.231812 598.426208 1054.116943 C 599.761353 1052.001953 601.812378 1050.020752 602.984131 1049.714355 C 604.538757 1049.307861 605.356506 1049.744141 606.009888 1051.328613 C 606.502319 1052.522949 607.185181 1058.900024 607.527344 1065.5 C 608.02417 1075.082886 607.86145 1077.885254 606.71936 1079.412476 C 605.858521 1080.563721 604.650757 1081.079956 603.685242 1080.709473 C 602.803101 1080.370972 600.934326 1077.830444 599.53241 1075.063965 C 597.923157 1071.888184 596.157104 1069.828613 594.74176 1069.476807 C 593.508789 1069.170288 587.325012 1069.050171 581 1069.209717 L 569.5 1069.5 L 569.222046 1093 C 568.946106 1116.335449 568.9599 1116.512939 571.199829 1118.344727 C 573.239441 1120.012695 575.085938 1120.153809 590.477722 1119.818115 C 603.834351 1119.526733 608.146057 1119.093994 610.5 1117.808716 C 612.150024 1116.907715 614.93811 1114.669678 616.695862 1112.835327 C 618.453552 1111.000977 621.099792 1106.800049 622.576294 1103.5 C 624.052856 1100.199951 625.877197 1096.841064 626.630432 1096.035645 C 627.830383 1094.752686 628.206848 1094.77832 629.670471 1096.241943 C 631.170715 1097.742188 631.223511 1098.961426 630.188782 1108.206177 C 629.555176 1113.867798 628.551392 1120.208984 627.958191 1122.297607 C 627.226318 1124.874756 626.074646 1126.401367 624.374756 1127.047607 C 622.9151 1127.602539 604.475342 1127.95166 580.184875 1127.884033 C 557.258179 1127.82019 537.750793 1127.56958 536.835144 1127.327148 C 535.919495 1127.084473 534.882507 1126.136108 534.530701 1125.219482 C 534.141357 1124.204834 534.574036 1123.053467 535.636719 1122.276367 C 536.596741 1121.574463 538.441711 1121 539.736572 1121 C 541.031433 1121 543.195435 1119.895508 544.545471 1118.54541 C 547 1116.09082 547 1116.09082 547 1066.068481 C 547 1016.046082 547 1016.046082 544.75 1014.634521 C 543.512512 1013.858093 540.852295 1012.700989 538.83844 1012.06311 C 536.824585 1011.425171 534.887573 1010.149414 534.533997 1009.228027 C 534.137146 1008.193787 534.581604 1007.046509 535.695557 1006.229675 C 537.126343 1005.180481 545.575623 1004.931702 576.5 1005.028076 C 597.950012 1005.094971 616.982849 1005.365234 618.795227 1005.628662 C 621.071899 1005.959534 622.364258 1006.82782 622.976379 1008.437805 C 623.463623 1009.719421 624.181885 1015.121643 624.572449 1020.442688 C 625.035461 1026.75 624.92041 1030.479492 624.242004 1031.157959 C 623.669617 1031.730469 622.242004 1031.894165 621.069458 1031.521973 C 619.875732 1031.143188 618.021423 1028.896484 616.855713 1026.416504 C 615.710693 1023.98053 613.454468 1020.877319 611.841858 1019.520386 C 610.229248 1018.163513 607.017639 1016.478821 604.704956 1015.776611 C 602.07074 1014.976868 594.710022 1014.5 585 1014.5 L 569.5 1014.5 Z M 849.497375 1088.5 C 816.949402 1088.037109 806.84314 1088.299805 806.040222 1088.784912 C 805.237366 1089.270264 803.084106 1093.45459 801.255188 1098.083618 C 799.42627 1102.712646 797.425293 1108.32666 796.808594 1110.559082 C 796.191895 1112.791504 795.976929 1115.771973 796.330933 1117.182373 C 796.732117 1118.780762 798.144348 1120.231445 800.079956 1121.033203 C 801.787903 1121.740601 803.441772 1122.987549 803.755127 1123.804321 C 804.070435 1124.625977 803.496948 1125.894653 802.471375 1126.644531 C 801.115967 1127.635742 796.973267 1127.98291 787.058899 1127.936523 C 779.601501 1127.901733 772.454102 1127.453857 771.175781 1126.941406 C 769.737488 1126.364746 768.978943 1125.3479 769.185791 1124.273804 C 769.371826 1123.307739 772.096985 1121.302734 775.331543 1119.751953 C 781.011108 1117.029053 781.24176 1116.756348 785.493896 1107.73291 C 787.886841 1102.654785 792.951416 1091.074951 796.748474 1082 C 800.545532 1072.925049 807.850647 1055.599976 812.981995 1043.5 C 818.113342 1031.400024 823.676331 1018.407654 825.344238 1014.628174 C 827.012085 1010.848633 829.107422 1006.854004 830.000427 1005.75116 C 831.112305 1004.377991 832.27063 1003.951111 833.675049 1004.396851 C 834.962891 1004.805603 836.864502 1007.550293 838.786194 1011.773926 C 840.469299 1015.473267 846.147522 1028.965942 851.404419 1041.75769 C 856.661377 1054.549438 865.073425 1075.024414 870.0979 1087.25769 C 875.122375 1099.490967 880.310364 1111.184814 881.62677 1113.243896 C 882.943176 1115.302979 885.837158 1118.134644 888.057861 1119.536621 C 890.278564 1120.938477 892.372131 1122.806274 892.710266 1123.687256 C 893.077637 1124.644653 892.579163 1125.834595 891.471375 1126.644531 C 890.056091 1127.679443 884.830139 1128 869.373962 1128 C 858.239868 1128 847.984497 1127.564453 846.584229 1127.031982 C 844.906616 1126.394287 844.235168 1125.550781 844.615662 1124.559204 C 844.933228 1123.731567 846.837158 1122.80249 848.846558 1122.494751 C 850.855957 1122.187012 854.075012 1121.150391 856 1120.191162 C 859.036072 1118.678345 859.486755 1117.986694 859.400146 1114.973633 C 859.345215 1113.06311 857.094666 1106.324951 854.398804 1100 L 849.497375 1088.5 Z M 217.050156 1078 C 234.233154 1078 234.233154 1078 233.784576 1075.75 C 233.537857 1074.512451 230.068207 1065.400024 226.074234 1055.5 C 222.080276 1045.599976 218.37439 1037.050049 217.838928 1036.5 C 217.194214 1035.837769 216.425964 1036.094727 215.564545 1037.260742 C 214.849106 1038.229248 211.166885 1046.779297 207.381866 1056.260742 C 203.596832 1065.742432 200.357605 1074.512451 200.183578 1075.75 C 199.867157 1078 199.867157 1078 217.050156 1078 Z M 827.593628 1078 C 844.25 1078 844.25 1078 843.654663 1075.25 C 843.327271 1073.737549 841.316162 1068.224976 839.185608 1063 C 837.055054 1057.775024 833.605896 1049.545288 831.520813 1044.71167 C 829.43573 1039.878174 827.228088 1036.084229 826.614868 1036.28064 C 826.001709 1036.477051 822.011475 1045.381836 817.747742 1056.068848 C 813.484009 1066.755981 810.207397 1076.0625 810.46637 1076.75 C 810.817139 1077.681152 815.186279 1078 827.593628 1078 Z M 568.810669 929 C 568.080017 929 563.661194 926.439819 558.991089 923.31073 C 554.320984 920.181641 546.450012 915.106384 541.5 912.03241 C 536.549988 908.958496 528 903.887512 522.5 900.763672 C 517 897.639771 504.625 891.296509 495 886.667419 C 485.375 882.038391 471.200012 875.527283 463.5 872.198303 C 455.799988 868.869324 443.649994 864.155518 436.5 861.723145 C 429.350006 859.290833 416.75 855.587036 408.5 853.492615 C 400.25 851.398132 392.920959 849.160339 392.213257 848.519775 C 391.505554 847.879211 391.190521 846.712708 391.513214 845.927551 C 391.835907 845.142395 393.764923 843.334717 395.799957 841.9104 C 397.834991 840.486145 402.919556 835.724731 407.098999 831.329407 C 411.278473 826.934143 417.183502 819.999451 420.221313 815.919006 C 423.259125 811.838562 428.361572 804.01355 431.560059 798.53009 C 434.758545 793.046692 439.579376 783.59668 442.273041 777.53009 C 444.966705 771.463562 449.432831 760.875 452.197784 754 C 454.962738 747.125 459.157623 736.099976 461.519745 729.5 C 463.881866 722.900024 468.289246 710.974976 471.313965 703 C 474.338684 695.025024 479.586609 682.671143 482.976044 675.546936 C 486.365509 668.422791 491.560822 658.877991 494.52124 654.336365 C 497.481628 649.794678 503.412933 642.39856 507.701904 637.900513 C 511.990845 633.402466 520.945068 625.172241 527.600098 619.611084 C 534.255188 614.050049 547.731323 603.425049 557.547119 596 C 567.362854 588.574951 580.779297 577.324951 587.361328 571 C 593.943359 564.675049 602.742188 555.36853 606.914307 550.319092 C 611.086426 545.269531 617.400696 536.494507 620.946045 530.819092 C 624.491333 525.143555 629.548828 515.426758 632.184814 509.225952 C 634.820862 503.025269 638.137756 493.350342 639.555725 487.725952 C 640.973633 482.101685 642.4505 476.379395 642.837524 475.009766 C 643.224609 473.640015 644.274902 472.378174 645.17157 472.205444 C 646.167725 472.013672 648.625916 474.130859 651.492126 477.649414 C 654.071838 480.816284 657.888 486.803223 659.972473 490.953735 C 662.056946 495.104126 664.890564 502.099976 666.269409 506.5 C 667.648193 510.900024 669.908325 519.675049 671.29187 526 C 672.675415 532.324951 674.342712 542.042114 674.997009 547.593506 C 675.917358 555.401978 675.916443 561.080688 674.992981 572.67749 C 673.941528 585.881592 673.994202 588.428833 675.435181 594.053345 C 676.435242 597.957153 679.242554 603.948608 682.658386 609.469482 C 685.731384 614.436279 691.094238 622.631714 694.575867 627.681641 C 698.057434 632.731567 702.502197 640.032837 704.453003 643.906738 C 706.512756 647.996765 708 652.428101 708 654.475037 C 708 656.68457 707.242126 658.757874 705.969055 660.030945 C 704.852051 661.147949 702.489563 662.698425 700.719055 663.476501 C 698.948608 664.254517 695.162964 665.618286 692.30658 666.507141 C 689.450195 667.395935 685.962708 669.028076 684.55658 670.134155 C 682.676331 671.613159 682 673.079834 682 675.678223 C 682 677.621399 682.700867 681.915955 683.557434 685.221558 C 684.746826 689.811707 684.863281 691.972412 684.050293 694.365906 C 683.464844 696.089661 681.18103 699.075012 678.97522 701 C 675.194275 704.299622 675.020691 704.692017 675.942505 707.854614 C 676.633728 710.225891 676.565613 712.032715 675.710205 714.018616 C 675.044556 715.563782 672.122559 719.041138 669.216858 721.746094 C 663.933716 726.664185 663.933716 726.664185 664.216858 743.082092 C 664.497986 759.382507 664.479553 759.541687 661.640808 765.322815 C 659.786682 769.098877 657.348572 772.183716 654.704651 774.098999 C 652.46228 775.723389 648.137512 777.776306 645.094116 778.661011 C 640.621216 779.961304 636.58374 780.162415 624.030273 779.710083 C 613.50647 779.330872 603.986816 778.296936 594.5 776.502808 C 586.799988 775.04657 577.444519 773.600952 573.710083 773.290344 C 566.920105 772.725525 566.920105 772.725525 562.630676 777.202332 C 559.990723 779.95752 557.294067 784.294617 555.618347 788.480591 C 554.120789 792.221375 552.01178 799.002991 550.931702 803.550781 C 549.851624 808.098572 548.522827 817.597595 547.978882 824.659729 C 547.434875 831.721863 547.250916 842.900024 547.570007 849.5 C 547.889099 856.099976 549.032654 866.224976 550.111328 872 C 551.189941 877.775024 553.217712 886.549988 554.617432 891.5 C 556.017151 896.450012 559.919983 906.125 563.290405 913 C 566.660828 919.875 569.580566 926.287476 569.778748 927.25 C 569.978333 928.219299 569.546448 929 568.810669 929 Z M 387.878876 653.78479 C 387.019348 653.950317 385.682465 653.320984 384.908051 652.38623 C 384.023193 651.318237 383.517151 648.422546 383.546143 644.593323 C 383.571503 641.242004 384.6185 634 385.872772 628.5 C 387.127075 623 389.063873 615.356812 390.176788 611.515015 C 391.382355 607.353516 391.984741 603.109253 391.667023 601.015015 C 391.373688 599.081787 389.342926 593.421387 387.154175 588.436523 C 384.965454 583.451538 382.025299 575.949097 380.620544 571.764282 C 379.215759 567.57959 377.376465 559.541382 376.533203 553.901733 C 375.689941 548.261963 375 541.291626 375 538.411865 C 375 535.532104 375.637665 529.873901 376.417053 525.838013 C 377.196442 521.802124 379.052246 515.125 380.541046 511 C 382.029877 506.875 384.375916 501.25 385.754517 498.5 C 387.133118 495.75 389.439819 491.82666 390.880524 489.781616 C 392.321228 487.73645 394.132446 485.811157 394.905457 485.503296 C 395.678467 485.195435 397.32959 485.900513 398.574646 487.070068 C 399.819702 488.239746 401.837769 491.515015 403.059296 494.348389 C 404.280823 497.181763 406.341827 502.615356 407.639343 506.422852 C 408.936859 510.230469 410.68045 517.276367 411.513947 522.080444 C 412.732239 529.102051 412.823517 532.661621 411.979431 540.231445 C 411.401917 545.4104 409.863251 554.3396 408.56012 560.073975 C 407.256989 565.808228 405.859375 571.796143 405.454285 573.380371 C 404.961243 575.308472 405.079102 576.13501 405.810822 575.880371 C 406.411987 575.671143 409.287994 572.320435 412.201935 568.434204 C 415.115875 564.547974 421.396027 556.672974 426.157837 550.934204 C 430.919647 545.195435 438.344666 537.082642 442.657837 532.905762 C 446.971039 528.729004 454.100006 522.193237 458.5 518.381958 C 462.899994 514.570557 470.325012 508.568359 475 505.043701 C 479.674988 501.519043 486.792358 496.682251 490.816345 494.29541 C 494.840332 491.908569 501.590332 488.22937 505.816345 486.119507 C 510.042358 484.009644 517.775024 480.876953 523 479.158081 C 528.224976 477.439209 536.099976 475.350586 540.5 474.516602 C 544.900024 473.682617 551.650024 473.001587 555.5 473.00293 C 559.349976 473.004395 566.549988 473.46106 571.5 474.017822 C 576.450012 474.574463 582.299988 475.517334 584.5 476.113037 C 586.700012 476.708862 590.637512 478.107544 593.25 479.221313 C 596.981689 480.812134 598 481.746704 598 483.580566 C 598 485.082764 596.708679 486.910034 594.376831 488.707397 C 592.384094 490.243286 589.552429 492.625 588.084167 494 C 586.615967 495.375 582.958862 498.173828 579.957336 500.219604 C 576.955811 502.265503 571.046875 505.525757 566.826355 507.4646 C 562.605835 509.403564 555.855835 511.779785 551.826355 512.744995 C 546.723572 513.967407 540.857971 514.463379 532.5 514.379517 C 522.976624 514.283813 518.229797 513.686035 509.5 511.48291 C 503.450012 509.955933 496.924988 508.534546 495 508.323975 C 492.586945 508.060059 490.362549 508.649048 487.837311 510.220581 C 485.822815 511.474243 481.097809 515.03186 477.337311 518.126221 C 473.576782 521.220703 466.899994 526.888672 462.5 530.721802 C 458.100006 534.55481 451.494934 541.054077 447.822052 545.164551 C 444.14917 549.275024 439.199158 555.059082 436.822052 558.018066 C 434.444916 560.977051 431.672699 564.651489 430.66153 566.183594 C 429.650391 567.715698 428.976501 569.429443 429.163971 569.991943 C 429.351471 570.554443 431.753784 569.505249 434.502441 567.6604 C 437.251099 565.81543 442.875 562.458862 447 560.201172 C 451.125 557.943481 457.649994 554.908691 461.5 553.457153 C 465.350006 552.005615 471.802094 550.18396 475.837982 549.408936 C 479.87384 548.634033 486.848846 548.005859 491.337982 548.013184 C 495.827087 548.020386 503.549988 548.864624 508.5 549.889282 C 513.450012 550.913818 519.1875 552.459961 521.25 553.325073 C 523.78595 554.388672 525 555.537109 525 556.872192 C 525 557.95813 523.783508 560.292236 522.296692 562.059204 C 520.809875 563.826294 518.222351 565.857544 516.546692 566.57312 C 514.871033 567.288818 510.154053 570.619507 506.064575 573.974609 C 501.975098 577.329712 495.774475 581.437256 492.285431 583.102417 C 488.796356 584.767578 481.611877 587.228394 476.319885 588.570801 C 471.027863 589.913208 463.053497 591.267944 458.59903 591.581177 C 453.342407 591.950928 447.593842 591.624512 442.21933 590.651123 C 437.664948 589.826294 430.756927 587.935547 426.868134 586.449585 C 419.797638 583.747803 419.797638 583.747803 417.47052 586.123901 C 416.190613 587.430786 412.665497 593.224976 409.636932 599 C 406.608368 604.775024 402.02533 614.659424 399.452393 620.96521 C 396.879456 627.271118 393.574493 637.167542 392.108002 642.957153 C 390.263214 650.240356 388.960144 653.576599 387.878876 653.78479 Z M 432.332672 527 C 431.572479 527 430.535156 525.907593 430.027496 524.572388 C 429.519836 523.237061 428.405975 518.462402 427.552246 513.961914 C 426.698517 509.461304 426 501.400757 426 496.049438 C 426 489.652466 426.681641 483.610596 427.990112 478.409912 C 429.084656 474.059448 431.97699 466.449951 434.417511 461.5 C 437.097656 456.063965 441.754486 449.027466 446.177399 443.730835 C 450.374207 438.704956 456.914948 432.409424 461.5 428.982666 C 465.899994 425.694214 469.950012 423.009644 470.5 423.01709 C 471.049988 423.024536 472.112823 423.418945 472.861816 423.893433 C 473.716187 424.434692 474.597168 428.248413 475.226074 434.128174 C 475.953918 440.932495 475.891205 446.376587 474.997192 454 C 474.319946 459.775024 472.66568 468.31543 471.321014 472.978638 C 469.976379 477.641968 467.032867 484.697266 464.779877 488.657104 C 462.526855 492.616943 458.396576 498.926636 455.60141 502.678467 C 452.806274 506.430298 446.738312 513.4375 442.117096 518.25 C 437.49588 523.0625 433.092896 527 432.332672 527 Z M 499.601135 475.961548 C 497.669891 476.695801 496.692566 476.549683 495.489838 475.347046 C 494.339691 474.196899 494.065552 472.64856 494.478333 469.634644 C 494.789764 467.360596 495.461456 462.574951 495.970978 459 C 496.480499 455.425049 498.500763 448.319214 500.460449 443.209473 C 502.796112 437.119263 506.172455 430.950439 510.261749 425.301758 C 513.69281 420.562256 519.200012 414.060303 522.5 410.852905 C 526.680908 406.789185 531.380249 403.598877 538 400.330078 C 543.224976 397.75 549.367249 394.952637 551.649414 394.113647 C 555.109375 392.841553 556.064148 392.80835 557.396057 393.913696 C 558.731018 395.021606 558.888794 396.65625 558.356873 403.869629 C 557.940857 409.512085 556.723389 415.269653 554.840454 420.5 C 553.256409 424.900024 550.956787 430.143311 549.730164 432.151855 C 548.503601 434.1604 545.620667 438.258667 543.32373 441.259277 C 541.026794 444.259888 535.286194 450.22998 530.566772 454.526123 C 525.847351 458.822266 519.626648 463.664307 516.742981 465.286377 C 513.859314 466.908447 510.375 469.252563 509 470.495605 C 507.625 471.738647 505.517792 473.260254 504.317322 473.876953 C 503.116852 474.493652 500.994568 475.431763 499.601135 475.961548 Z M 573.970337 452.591187 C 567.642151 453.133057 566.220093 452.970093 565.058044 451.569946 C 563.877014 450.146851 563.899414 449.437012 565.211914 446.702026 C 566.056946 444.940918 569.344727 440.125 572.517944 436 C 575.691223 431.875 581.260315 425.155029 584.893738 421.06665 C 588.527161 416.978271 594.823547 410.990723 598.885681 407.760864 C 602.947754 404.531128 609.448792 400.28833 613.332336 398.332642 C 617.215881 396.376953 623.906006 393.725342 628.199341 392.440308 C 632.492615 391.155273 639.78241 389.797485 644.398926 389.422852 C 649.015381 389.048218 654.858826 389.051636 657.384277 389.43042 C 659.90979 389.809082 662.639587 390.782471 663.450439 391.593262 C 664.569519 392.712402 664.686401 393.694702 663.935425 395.6698 C 663.391296 397.100952 660.387634 401.923218 657.260559 406.385986 C 654.133545 410.848633 647.733154 418.348267 643.037537 423.05188 C 637.669128 428.429199 631.344788 433.501099 626 436.71521 C 621.325012 439.526489 614.125 443.165527 610 444.801758 C 605.875 446.43811 597.775024 448.714966 592 449.861694 C 586.224976 451.008301 578.111633 452.236694 573.970337 452.591187 Z"/>
</svg>
