<?xml version="1.0" encoding="UTF-8"?>
<svg width="1007px" height="1103px" viewBox="0 0 1007 1103" version="1.1" xmlns="http://www.w3.org/2000/svg" xmlns:xlink="http://www.w3.org/1999/xlink">
    <title>Athena Logo with Caption - Sketch</title>
    <g id="Athena" stroke="none" stroke-width="1" fill="none" fill-rule="evenodd">
        <g id="Athena-Logo-Draft" transform="translate(-997, -449)" fill="#C48D26">
            <g id="Athena-Logo-with-Caption" transform="translate(997, 448)">
                <path d="M794.269998,1009.48656 C792.262849,1009.48656 789.233963,1007.89634 787.130173,1005.73805 C785.120522,1003.67643 777.643283,993.814773 770.51412,983.823498 C763.384956,973.832056 754.440512,961.257684 750.637575,955.880006 C746.834638,950.502328 738.998741,939.661945 733.224395,931.790026 C727.450134,923.918107 717.355401,909.973816 710.791759,900.802529 C704.228033,891.631241 698.029964,884.117068 697.018308,884.104589 C695.497283,884.08562 695.277256,893.225293 695.747552,936.90164 C696.060305,965.952648 696.780618,990.743977 697.348139,991.993594 C697.915742,993.24321 700.791002,995.858919 703.737659,997.806058 C706.684234,999.75353 709.095112,1002.27323 709.095112,1003.4057 C709.095112,1004.53818 707.519518,1006.06285 705.593764,1006.79415 C703.668094,1007.52528 696.030062,1008.12347 688.620388,1008.12347 C681.210714,1008.12347 673.572682,1007.52528 671.647012,1006.79415 C669.581128,1006.00977 668.145664,1004.40107 668.145664,1002.87008 C668.145664,1001.26505 669.727757,999.621081 672.295011,998.559323 C674.57709,997.615372 677.34121,995.564236 678.437429,994.0013 C680.120078,991.602236 680.430498,980.595959 680.430498,923.339556 C680.430498,855.5194 680.430498,855.5194 677.298472,853.470096 C675.575832,852.342944 672.043909,850.714698 669.449827,849.851865 C666.855663,848.98903 663.811863,847.406043 662.685737,846.334135 C660.871454,844.607134 660.94002,844.161782 663.287832,842.423884 C665.207504,841.002881 669.984607,840.462518 680.627198,840.462518 C688.706449,840.462518 696.727799,841.13375 698.452272,841.954237 C700.176744,842.774641 706.152454,849.67532 711.7316,857.289079 C717.310829,864.902757 730.77386,883.093413 741.649474,897.712598 C752.525172,912.331782 766.694771,931.311145 773.137528,939.888906 C779.580285,948.466668 785.619395,955.725093 786.557819,956.018944 C787.897557,956.438257 788.264046,947.495094 788.264046,914.383248 C788.264046,891.189965 787.860651,868.359585 787.367611,863.649146 C786.562651,855.957764 786.056531,854.860314 782.40364,852.885138 C780.166466,851.675456 776.884812,849.458926 775.111186,847.959552 C772.739463,845.954508 772.233343,844.692494 773.197928,843.188712 C774.217165,841.599902 778.249294,841.037574 791.282935,840.66635 C803.783464,840.310351 808.925556,840.670926 811.468734,842.081778 C813.345584,843.122903 814.881188,844.830269 814.881188,845.87572 C814.881188,846.921255 812.444816,849.044606 809.467083,850.594312 C805.674227,852.568157 803.685906,854.695251 802.827461,857.697493 C802.153384,860.054543 801.703417,893.697851 801.827469,932.46026 C802.026,994.534592 801.796727,1003.328 799.904464,1006.2121 C798.564393,1008.25458 796.444272,1009.48656 794.269998,1009.48656 Z M26.019346,1008.07214 C12.833145,1008.07214 6.38768031,1007.54549 4.72872183,1006.33286 C3.42014994,1005.37622 2.69698096,1003.69 3.12167677,1002.58549 C3.54635214,1001.48097 7.39203935,998.737812 11.6676019,996.489357 C18.7498827,992.764943 19.8966666,991.492255 24.5599257,982.181219 C27.3751302,976.560165 33.0137555,963.682907 37.0901969,953.564943 C41.1666382,943.446978 49.2591445,924.131091 55.0735342,910.640529 C60.8879239,897.149966 68.0548539,880.286803 71,873.166833 C73.9451775,866.046864 78.4045939,855.775616 80.9098459,850.341946 C84.3390304,842.904263 86.1364201,840.462518 88.1822001,840.462518 C89.6767495,840.462518 91.7876697,841.350372 92.8731204,842.435592 C93.958571,843.52073 97.673813,851.189546 101.129223,859.477323 C104.584635,867.765019 112.031424,885.575504 117.677619,899.056086 C123.323835,912.536503 132.881648,935.374698 138.917184,949.807593 C144.952782,964.240489 151.535659,979.412611 153.545875,983.523605 C156.498744,989.56218 158.640903,991.848062 164.697465,995.4231 C168.820598,997.856695 172.414129,1000.89145 172.683048,1002.16664 C172.952009,1003.44182 172.068049,1005.29222 170.718755,1006.27863 C168.881287,1007.62201 161.402636,1008.06748 140.92482,1008.05351 C125.887446,1008.04319 112.204088,1007.66526 110.517345,1007.21314 C108.767291,1006.74439 107.450545,1005.33114 107.450545,1003.92188 C107.450545,1002.02924 109.178594,1001.09339 114.842427,999.917681 C118.907949,999.073992 122.974781,997.491739 123.879788,996.401528 C124.852722,995.229477 125.232558,992.336111 124.809129,989.322314 C124.415256,986.518772 121.529857,977.633575 118.397128,969.577096 C113.921863,958.068175 112.065635,954.789891 109.73515,954.28005 C108.103791,953.923245 95.2282723,953.493748 81.1228794,953.326075 C64.0193018,953.122804 54.6608385,953.530509 53.0272744,954.550358 C51.68008,955.391553 48.9330933,960.187048 46.9228978,965.207272 C44.9126817,970.227496 42.4383158,977.519297 41.4242848,981.411385 C40.4102756,985.303473 39.894275,990.12841 40.2776249,992.13334 C40.7028632,994.357176 42.7738918,996.890243 45.5891386,998.629856 C48.1271058,1000.19797 50.203626,1002.32932 50.203626,1003.36597 C50.203626,1004.40261 49.0172218,1005.88573 47.5671805,1006.66155 C46.1132082,1007.43937 36.4488896,1008.07214 26.019346,1008.07214 Z M215.053104,853.416079 C199.222497,852.749403 192.318383,853.237362 189.4973,854.070351 C186.676218,854.903342 182.261886,857.436858 179.6877,859.700425 C176.980736,862.080777 173.896342,866.798865 172.372327,870.890316 C170.218999,876.671555 169.149421,877.964783 166.5215,877.964783 C163.587505,877.964783 163.268921,877.315173 162.885301,870.549362 C162.654029,866.470731 163.173213,858.927784 164.038992,853.787084 C165.258844,846.54422 166.324557,843.973578 168.773736,842.366448 C171.485272,840.587094 179.738026,840.324136 226.857156,840.51559 C257.064713,840.638369 283.799766,841.01595 286.268396,841.35474 C289.21436,841.759124 291.208063,842.999994 292.069892,844.965808 C292.792088,846.61306 294.32404,853.474431 295.4742,860.213272 C296.624358,866.952029 297.38404,874.316673 297.16241,876.578991 C296.86365,879.628933 295.981124,880.803294 293.748794,881.121273 C291.207273,881.483204 290.091815,880.101907 286.590304,872.256463 C284.308936,867.144814 280.502389,861.295402 278.131296,859.257417 C275.760163,857.219516 270.708746,854.866717 266.905898,854.029064 C263.10305,853.191412 256.927613,852.71078 253.182739,852.961085 C246.373875,853.416079 246.373875,853.416079 245.996653,921.606924 C245.789155,959.111889 245.950316,991.163917 246.354759,992.833394 C246.911386,995.131173 248.928321,996.404256 254.652022,998.070571 C258.811106,999.281557 262.579502,1001.22623 263.026251,1002.39226 C263.497768,1003.6229 262.779562,1005.28788 261.314352,1006.36069 C259.370518,1007.78427 252.509831,1008.173 231.474541,1008.05114 C216.450948,1007.96407 203.086518,1007.61229 201.77582,1007.26918 C200.465122,1006.92606 199.392718,1005.53827 199.392718,1004.18477 C199.392718,1002.83161 200.158715,1001.13666 201.094934,1000.41863 C202.031153,999.700424 204.929283,998.531891 207.53522,997.821847 C210.31225,997.065354 213.020461,995.137498 214.078527,993.164359 C215.525244,990.466358 215.801313,976.254494 215.468435,921.606924 L215.053104,853.416079 Z M366.057483,913.382099 L439.751348,913.382099 L440.137752,886.122442 C440.36169,870.323854 439.961292,857.612109 439.185486,855.888166 C438.300687,853.922056 435.297204,852.110847 430.327005,850.546128 C426.191087,849.24404 422.440908,847.225438 421.993241,846.060281 C421.529581,844.853529 422.204476,843.193225 423.561514,842.202184 C425.319533,840.918315 433.67283,840.462518 455.445412,840.462518 C478.116245,840.462518 485.532892,840.89028 487.476826,842.309916 C488.999952,843.422247 489.669976,845.032968 489.160795,846.358268 C488.695677,847.568763 486.599981,848.933992 484.503786,849.392119 C482.407507,849.850161 478.980094,850.872565 476.887313,851.664117 C474.794491,852.455585 472.491558,854.205484 471.769684,855.552661 C470.980507,857.025372 470.457125,884.704222 470.457125,924.967453 C470.457125,967.751004 470.95831,992.868023 471.845024,994.522835 C472.608379,995.947379 475.83251,997.783545 479.009705,998.603465 C482.186942,999.423052 485.861157,1000.40536 487.174715,1000.78603 C488.488273,1001.16671 489.562942,1002.59192 489.562942,1003.95324 C489.562942,1005.36797 488.247302,1006.7807 486.492364,1007.25022 C484.803563,1007.70244 470.83241,1008.07214 455.445412,1008.07214 C440.058414,1008.07214 426.087261,1007.70244 424.39846,1007.25022 C422.709658,1006.79833 421.327882,1005.37179 421.327882,1004.08035 C421.327882,1002.78875 422.712199,1001.10216 424.404123,1000.33215 C426.096091,999.562145 429.410055,998.508962 431.768504,997.991687 C434.126953,997.474413 437.052974,995.951372 438.270784,994.607357 C440.203889,992.474035 440.438447,988.114387 440.118178,960.269407 L439.751348,928.37491 L402.904416,928.37491 L366.057483,928.37491 L365.690194,959.582092 C365.386294,985.399902 365.674536,991.32535 367.359089,993.893254 C368.763646,996.034229 371.702619,997.47541 376.833242,998.539243 C380.924138,999.38728 385.007705,1000.96772 385.907871,1002.05085 C387.183156,1003.58554 387.169412,1004.47201 385.845651,1006.06493 C384.421144,1007.77931 379.048924,1008.09543 352.584557,1008.02289 C335.225348,1007.97547 319.640567,1007.38199 317.951766,1006.70383 C316.262964,1006.026 314.881188,1004.82507 314.881188,1004.0351 C314.881188,1003.24529 316.262964,1002.01974 317.951766,1001.31179 C319.640567,1000.60385 323.621889,999.369477 326.799126,998.568858 C329.976321,997.768073 333.200453,995.947379 333.963808,994.522835 C334.851355,992.866525 335.351706,967.408928 335.351706,923.905284 C335.351706,860.836881 335.177621,855.722618 332.963479,853.748855 C331.649962,852.577958 327.81174,850.899685 324.434097,850.019287 C321.056453,849.138889 317.371784,847.511029 316.245889,846.401692 C314.428065,844.610697 314.504488,844.158145 316.92824,842.360245 C319.200729,840.674486 325.072676,840.403203 352.003618,840.739789 C372.870994,841.000589 384.873102,841.667772 385.824702,842.619798 C386.636035,843.431481 386.913364,845.101517 386.440958,846.330981 C385.962679,847.575751 383.372838,848.934158 380.596248,849.396445 C377.854019,849.853073 374.075103,850.681728 372.198639,851.237936 C370.322174,851.79406 368.006122,853.848101 367.051856,855.802314 C365.784443,858.397754 365.416614,866.636712 365.687155,886.368684 L366.057483,913.382099 Z M562.173853,853.408002 L562.173853,913.42281 L577.167837,913.819581 C585.414512,914.037863 593.54155,913.872694 595.227941,913.45278 C596.91433,913.032865 599.783024,910.329063 601.602862,907.444439 C603.422784,904.55965 606.218515,901.857345 607.815719,901.439428 C609.934813,900.884981 611.049478,901.480055 611.940096,903.641232 C612.611324,905.270274 613.542126,913.968431 614.008524,922.97062 C614.685743,936.041417 614.463941,939.863771 612.90717,941.94686 C611.733769,943.517127 610.087479,944.221258 608.771396,943.715929 C607.568959,943.254223 605.021651,939.789012 603.110714,936.015609 C600.917158,931.68393 598.50987,928.874731 596.58063,928.394877 C594.89998,927.976793 586.470939,927.812957 577.849382,928.030573 L562.173853,928.426512 L561.794977,960.479875 C561.418846,992.308795 561.437649,992.550887 564.490872,995.049396 C567.271046,997.324459 569.787986,997.516935 590.768365,997.059057 C608.974645,996.66162 614.851885,996.071376 618.06052,994.318292 C620.309651,993.089351 624.110061,990.036729 626.506034,987.534724 C628.901923,985.03272 632.508985,979.302768 634.521589,974.801591 C636.534275,970.300413 639.021015,965.718982 640.047742,964.620413 C641.683382,962.870491 642.196538,962.905455 644.191587,964.901797 C646.236554,966.948091 646.308519,968.611099 644.898091,981.220688 C644.034429,988.942986 642.666182,997.592192 641.857596,1000.44102 C640.859988,1003.95618 639.290156,1006.03843 636.973054,1006.91989 C634.983412,1007.6768 609.848373,1008.15299 576.738294,1008.06075 C545.487156,1007.97367 518.896845,1007.63185 517.648733,1007.30117 C516.400622,1006.97017 514.987114,1005.67663 514.507571,1004.42638 C513.976861,1003.04242 514.566641,1001.47199 516.015173,1000.41205 C517.323769,999.454668 519.838628,998.671116 521.603639,998.671116 C523.36865,998.671116 526.318379,997.164619 528.158598,995.323122 C531.504341,991.975128 531.504341,991.975128 531.504341,923.746013 C531.504341,855.516816 531.504341,855.516816 528.43739,853.591485 C526.750583,852.532458 523.124469,850.954199 520.379405,850.08415 C517.63434,849.214018 514.99402,847.47392 514.512064,846.217173 C513.971121,844.806498 514.576957,843.241642 516.095374,842.127502 C518.045663,840.69643 529.562788,840.357102 571.715479,840.488554 C600.953764,840.579797 626.897223,840.948428 629.367657,841.307737 C632.470964,841.759037 634.232565,842.943356 635.066941,845.139332 C635.731098,846.887421 636.710153,854.255906 637.242527,861.513667 C637.873654,870.11667 637.716829,875.203596 636.792101,876.129006 C636.011886,876.909895 634.065922,877.133171 632.467637,876.625512 C630.840482,876.108859 628.312893,873.044416 626.723926,869.66179 C625.163161,866.339188 622.087724,862.106492 619.889593,860.255672 C617.691461,858.404934 613.313751,856.10706 610.161357,855.149264 C606.570685,854.058437 596.537368,853.408002 583.30174,853.408002 L562.173853,853.408002 Z M944.027561,954.130924 C899.731958,953.4988 885.978015,953.857537 884.885298,954.52 C883.792665,955.182797 880.862223,960.896913 878.373188,967.218315 C875.884154,973.539717 873.160959,981.206217 872.321673,984.254813 C871.482387,987.303409 871.189833,991.373538 871.671608,993.299581 C872.217593,995.482342 874.139544,997.463395 876.773777,998.558276 C879.098178,999.524299 881.348982,1001.22713 881.775437,1002.34252 C882.20455,1003.46457 881.424073,1005.19707 880.028337,1006.22111 C878.183718,1007.5747 872.545782,1008.0488 859.052993,1007.98545 C848.903976,1007.93794 839.176847,1007.32632 837.437138,1006.62652 C835.479718,1005.83903 834.447389,1004.45043 834.728895,1002.98364 C834.982076,1001.66438 838.690835,998.926347 843.092851,996.8086 C850.822357,993.090207 851.136258,992.717801 856.92313,980.395392 C860.179767,973.460702 867.072313,957.647278 872.239854,945.254522 C877.407394,932.861766 887.349164,909.202641 894.332584,892.67891 C901.316002,876.155179 908.886856,858.412795 911.156766,853.251536 C913.426593,848.090193 916.278206,842.635127 917.493526,841.129083 C919.006717,839.253883 920.583119,838.670935 922.494439,839.279638 C924.247105,839.83783 926.83507,843.585979 929.450364,849.353774 C931.740956,854.405595 939.468636,872.831196 946.62292,890.299611 C953.777286,907.768026 965.225518,935.728659 972.06349,952.434425 C978.901463,969.140192 985.961967,985.109313 987.753507,987.921196 C989.545047,990.73308 993.483562,994.600003 996.505789,996.514543 C999.528017,998.428918 1002.37722,1000.97958 1002.8374,1002.18265 C1003.33737,1003.49007 1002.65898,1005.11506 1001.15135,1006.22111 C999.225246,1007.63438 992.113077,1008.07214 971.078259,1008.07214 C955.925506,1008.07214 941.968636,1007.47735 940.062965,1006.75021 C937.779847,1005.87937 936.866051,1004.72748 937.383878,1003.37338 C937.816064,1002.24316 940.407184,1000.97441 943.141843,1000.55417 C945.8765,1000.13392 950.257417,998.718308 952.877196,997.408384 C957.009086,995.342481 957.622435,994.397962 957.504566,990.283325 C957.429809,987.674314 954.366963,978.472682 950.698076,969.835327 L944.027561,954.130924 Z M81.9135928,940.179632 C105.291073,940.179632 105.291073,940.179632 104.680782,937.100442 C104.345121,935.406821 99.6246598,922.936201 94.1908569,909.387731 C88.7570744,895.839262 83.7152141,884.13844 82.9867177,883.385682 C82.1095838,882.479399 81.0643792,882.831054 79.8924181,884.426779 C78.9190629,885.752208 73.9093988,897.453197 68.7598779,910.428829 C63.6103367,923.404796 59.2033662,935.406821 58.9666024,937.100442 C58.5361114,940.179632 58.5361114,940.179632 81.9135928,940.179632 Z M914.505605,940.179632 C937.092932,940.179632 937.092932,940.179632 936.285609,936.450913 C935.84164,934.400184 933.114421,926.925697 930.225225,919.841163 C927.336029,912.756629 922.658705,901.597947 919.831171,895.044054 C917.003638,888.490327 914.009905,883.346124 913.178331,883.612438 C912.34684,883.878751 906.935775,895.952731 901.153823,910.443228 C895.371872,924.93389 890.928533,937.55258 891.279721,938.48476 C891.75539,939.747307 897.680282,940.179632 914.505605,940.179632 Z M561.5802,736.502122 C560.584654,736.502122 554.563807,733.014161 548.200578,728.751126 C541.837348,724.488092 531.112793,717.573621 524.368177,713.385675 C517.623562,709.19781 505.973816,702.28916 498.479817,698.033277 C490.985818,693.777311 474.12432,685.135324 461.009822,678.828706 C447.895323,672.522172 428.58126,663.651515 418.089645,659.116151 C407.59803,654.580789 391.043114,648.158754 381.300923,644.844918 C371.558732,641.531164 354.390654,636.485154 343.149655,633.631739 C331.908657,630.77824 321.922506,627.729497 320.95823,626.8568 C319.993953,625.984103 319.564706,624.394873 320.00439,623.325184 C320.444074,622.255497 323.072446,619.792737 325.845272,617.852265 C328.618098,615.911876 335.546048,609.424981 341.240728,603.436843 C346.93545,597.448786 354.98132,588.001043 359.120475,582.441892 C363.259631,576.882743 370.211946,566.222037 374.57003,558.751435 C378.928112,551.280918 385.496712,538.406331 389.166953,530.14128 C392.837192,521.876313 398.922491,507.450579 402.689864,498.084159 C406.457239,488.717739 412.17296,473.697375 415.391458,464.705644 C418.609955,455.713914 424.61521,439.467367 428.736527,428.602353 C432.857843,417.737339 440.008379,400.906555 444.626637,391.200618 C449.244937,381.494766 456.323786,368.491042 460.35749,362.303583 C464.391152,356.116042 472.472824,346.039657 478.316741,339.91157 C484.160617,333.783483 496.361152,322.57072 505.428931,314.994265 C514.496793,307.417975 532.858637,292.942599 546.233103,282.826799 C559.607487,272.710998 577.887998,257.384129 586.856313,248.76709 C595.824628,240.15005 607.813431,227.470957 613.498132,220.591662 C619.182833,213.712198 627.786312,201.757208 632.617011,194.025089 C637.447626,186.292803 644.338692,173.054752 647.930342,164.606846 C651.522077,156.159108 656.041495,142.9781 657.973542,135.315496 C659.905506,127.653061 661.917804,119.857079 662.445142,117.991113 C662.972563,116.12498 664.403635,114.405862 665.625385,114.170537 C666.982692,113.909269 670.332088,116.7937 674.237429,121.587338 C677.752404,125.901845 682.952097,134.058381 685.792286,139.71299 C688.632475,145.367435 692.493408,154.898499 694.372146,160.893041 C696.250802,166.887582 699.330334,178.842574 701.215477,187.459614 C703.10062,196.076653 705.372387,209.315203 706.263896,216.878355 C707.517914,227.516526 707.516667,235.253135 706.258408,251.052483 C704.825756,269.041598 704.897527,272.511929 706.860926,280.174699 C708.223554,285.493201 712.048644,293.65589 716.70287,301.177464 C720.889968,307.944171 728.1971,319.109536 732.940977,325.989498 C737.68477,332.869458 743.740961,342.816623 746.399022,348.094381 C749.205529,353.666586 751.231966,359.703787 751.231966,362.492508 C751.231966,365.50275 750.199328,368.327396 748.464712,370.061813 C746.942743,371.583606 743.723746,373.695956 741.311349,374.755998 C738.899035,375.815958 733.740923,377.673941 729.848971,378.884907 C725.957017,380.095789 721.205158,382.319399 719.289245,383.826308 C716.72732,385.841286 715.805789,387.839467 715.805789,391.379482 C715.805789,394.026842 716.760752,399.877696 717.927863,404.381211 C719.548464,410.634776 719.707139,413.578495 718.599406,416.839364 C717.801705,419.187788 714.689905,423.254995 711.684389,425.877576 C706.53268,430.372943 706.296164,430.907537 707.552178,435.216223 C708.494,438.446823 708.40119,440.908419 707.235658,443.613987 C706.328681,445.719103 702.347328,450.456613 698.388179,454.141813 C691.189659,460.842163 691.189659,460.842163 691.575453,483.209728 C691.958502,505.417224 691.933386,505.634089 688.065468,513.510231 C685.539137,518.654693 682.217102,522.857442 678.61464,525.466801 C675.559308,527.679851 669.666616,530.476722 665.519851,531.682033 C659.425322,533.453537 653.924078,533.727529 636.819411,533.111277 C622.480253,532.594644 609.509293,531.186022 596.583077,528.741723 C586.091462,526.757761 573.344212,524.788268 568.255874,524.365099 C559.004221,523.595596 559.004221,523.595596 553.15968,529.694746 C549.562625,533.448382 545.888309,539.357193 543.605064,545.060115 C541.564574,550.156515 538.690953,559.39571 537.219298,565.591566 C535.747643,571.787424 533.937097,584.728782 533.195947,594.350151 C532.454713,603.97152 532.204061,619.200517 532.638837,628.192247 C533.073614,637.183978 534.631759,650.97816 536.101502,658.845985 C537.571161,666.713811 540.33409,678.66872 542.241272,685.412558 C544.148453,692.156397 549.466238,705.337488 554.058591,714.703908 C558.650945,724.070328 562.62922,732.806611 562.899252,734.117942 C563.171195,735.438504 562.582732,736.502122 561.5802,736.502122 Z M314.763584,361.642944 C313.591458,361.868254 311.76837,361.011627 310.712313,359.73927 C309.505645,358.285553 308.815563,354.344033 308.855099,349.131821 C308.889682,344.570115 310.317456,334.712537 312.027889,327.226117 C313.738363,319.739697 316.379547,309.33604 317.897213,304.106712 C319.541227,298.442216 320.362692,292.665064 319.929424,289.814456 C319.529408,287.18301 316.760087,279.478259 313.775319,272.693025 C310.790593,265.907627 306.781146,255.69555 304.865502,249.999317 C302.949818,244.303252 300.441599,233.361907 299.291655,225.685401 C298.141711,218.008731 297.200849,208.520937 297.200849,204.601101 C297.200849,200.681264 298.070423,192.979504 299.133263,187.485985 C300.196104,181.992466 302.726837,172.903783 304.757092,167.288969 C306.787389,161.674154 309.986648,154.017588 311.866626,150.274378 C313.746604,146.531168 316.892219,141.190847 318.856887,138.4072 C320.821554,135.623387 323.291485,133.002741 324.345629,132.583691 C325.399772,132.164641 327.651384,133.12437 329.349249,134.71633 C331.047113,136.308457 333.799122,140.766646 335.4649,144.623342 C337.130679,148.480037 339.94124,155.876066 341.710643,161.058705 C343.480047,166.241508 345.857757,175.832154 346.994384,182.371306 C348.655751,191.928887 348.780226,196.774057 347.629158,207.077853 C346.841611,214.127277 344.743354,226.281411 342.966294,234.086855 C341.189233,241.892132 339.283327,250.042686 338.730912,252.199085 C338.058558,254.823553 338.21928,255.948609 339.217116,255.602003 C340.036916,255.317209 343.958885,250.756335 347.932583,245.466524 C351.906281,240.176715 360.470432,229.457524 366.964043,221.646098 C373.457653,213.834674 383.583043,202.791806 389.464852,197.106374 C395.346702,191.421108 405.06837,182.524836 411.068578,177.337048 C417.068785,172.149094 427.194173,163.979099 433.569386,159.18145 C439.944599,154.383801 449.650452,147.800118 455.137905,144.551228 C460.625357,141.302339 469.830233,136.294333 475.593185,133.422457 C481.356137,130.550581 491.901061,126.286464 499.026284,123.946792 C506.151508,121.60712 516.89053,118.764155 522.890778,117.628963 C528.891027,116.49377 538.095903,115.5686 543.346059,115.5686 C548.596215,115.5686 558.414766,116.192194 565.165025,116.95004 C571.915284,117.707722 579.892811,118.991127 582.892935,119.801978 C585.893059,120.612996 591.26257,122.516836 594.825182,124.032862 C599.914032,126.198235 601.302687,127.470341 601.302687,129.966534 C601.302687,132.011276 599.541732,134.498497 596.361825,136.945008 C593.644359,139.03561 589.782858,142.277521 587.780611,144.149126 C585.778448,146.020731 580.791307,149.830404 576.69817,152.615047 C572.605035,155.399858 564.547105,159.837608 558.791644,162.476698 C553.036182,165.115952 543.831306,168.350386 538.336363,169.664199 C531.377772,171.328106 523.378938,172.003207 511.981295,171.889056 C498.994407,171.758787 492.521228,170.945111 480.616532,167.94629 C472.366252,165.867819 463.468172,163.933073 460.843094,163.646451 C457.552446,163.287217 454.51907,164.08893 451.075439,166.228049 C448.328301,167.934493 441.884879,172.777004 436.756743,176.988947 C431.628565,181.201054 422.523526,188.916108 416.523319,194.133639 C410.523112,199.351004 401.515871,208.197593 396.507216,213.792635 C391.498561,219.387677 384.748302,227.260747 381.506677,231.288419 C378.265011,235.316092 374.484579,240.317617 373.105663,242.403068 C371.726788,244.488518 370.807814,246.821211 371.063464,247.586868 C371.319155,248.352524 374.595154,246.924396 378.343457,244.413248 C382.091762,241.901935 389.760994,237.333085 395.386196,234.259991 C401.011398,231.186896 409.909437,227.056039 415.159634,225.080253 C420.409831,223.104468 429.208449,220.62489 434.71213,219.569953 C440.215771,218.515181 449.727484,217.660131 455.849253,217.670101 C461.97098,217.679904 472.502587,218.829054 479.252846,220.223784 C486.003105,221.618349 493.827234,223.722908 496.639835,224.900471 C500.098073,226.348207 501.753655,227.911421 501.753655,229.728693 C501.753655,231.206836 500.094743,234.383944 498.067193,236.789083 C496.039643,239.194388 492.511074,241.959259 490.226002,242.933278 C487.940931,243.907462 481.508454,248.441087 475.931693,253.007942 C470.354933,257.574798 461.899234,263.165853 457.141276,265.432415 C452.383275,267.698978 442.585906,271.04856 435.369294,272.8758 C428.152641,274.703041 417.278115,276.547063 411.203623,276.973425 C404.035243,277.476718 396.196009,277.032411 388.866866,275.707466 C382.656122,274.584736 373.235755,272.011113 367.932664,269.98847 C358.290732,266.310893 358.290732,266.310893 355.117276,269.54516 C353.371885,271.324049 348.564736,279.210911 344.434726,287.071684 C340.304718,294.932457 334.054896,308.386779 330.546219,316.970008 C327.037543,325.553403 322.530613,339.024091 320.530781,346.90472 C318.01507,356.818377 316.238093,361.359561 314.763584,361.642944 Z M375.154197,189.118812 C374.116255,189.118812 372.699929,187.632866 372.006787,185.816654 C371.313645,184.000276 369.792817,177.505549 368.627164,171.383763 C367.461511,165.261811 366.507779,154.297456 366.507779,147.018327 C366.507779,138.31685 367.438469,130.0984 369.225012,123.024172 C370.719465,117.106456 374.668561,106.755642 378.000767,100.022474 C381.660147,92.6281103 388.018426,83.0567165 394.057323,75.8519772 C399.787504,69.0155281 408.718013,60.4520342 414.978289,55.7907886 C420.985893,51.3176736 426.515652,47.6659888 427.266587,47.6760962 C428.017522,47.6862456 429.468682,48.2227402 430.491331,48.8681623 C431.657861,49.6044095 432.860723,54.7920214 433.71941,62.7899629 C434.713184,72.0455367 434.627558,79.4508598 433.406902,89.8206031 C432.482213,97.6760762 430.223534,109.293159 428.387572,115.636285 C426.551653,121.979577 422.53268,131.576542 419.456523,136.962909 C416.380322,142.349278 410.740978,150.932034 406.924552,156.03546 C403.108167,161.138886 394.823175,170.670429 388.513522,177.216629 C382.203868,183.76283 376.192182,189.118812 375.154197,189.118812 Z M467.088801,119.907668 C464.456707,120.911441 463.12471,120.711688 461.485511,119.067603 C459.917974,117.495275 459.54435,115.378592 460.10693,111.258367 C460.531379,108.149591 461.446829,101.607294 462.141257,96.7200965 C462.835684,91.8328993 465.589103,82.1187472 468.259961,75.1333893 C471.443238,66.8076646 476.044859,58.3744693 481.618162,50.6523443 C486.294358,44.1731279 493.800129,35.2845229 498.297685,30.8997952 C503.995849,25.344418 510.400585,20.9830534 519.42265,16.5143864 C526.543774,12.9872471 534.915084,9.16306466 538.025449,8.01610917 C542.741033,6.27707153 544.042294,6.23168081 545.857554,7.74276277 C547.676973,9.2573499 547.892006,11.4920176 547.167051,21.3531895 C546.600062,29.0668045 544.940774,36.9377853 542.37452,44.0880198 C540.215624,50.1031471 537.081467,57.2710713 535.409701,60.0168854 C533.738017,62.7627008 529.808864,68.3653061 526.678366,72.4673408 C523.54787,76.5693769 515.724001,84.7308922 509.291896,90.6040073 C502.859793,96.4771223 494.381591,103.096516 490.451439,105.313995 C486.521287,107.531473 481.772512,110.736036 479.898523,112.435358 C478.024534,114.13468 475.152619,116.214818 473.516497,117.057887 C471.880375,117.900956 468.987912,119.183416 467.088801,119.907668 Z M568.642838,87.5950857 C560.023775,88.3346511 558.086916,88.1122315 556.504192,86.201256 C554.895615,84.2589602 554.926124,83.2901441 556.713764,79.557328 C557.864708,77.1536988 562.342704,70.5807451 566.664662,64.9507835 C570.986705,59.3208218 578.571873,50.149142 583.520637,44.5691621 C588.469402,38.9891822 597.045153,30.817142 602.577826,26.4089039 C608.110417,22.0008336 616.964906,16.2100966 622.254338,13.5408969 C627.543772,10.871696 636.6558,7.25267333 642.503372,5.49880856 C648.350861,3.74494243 658.279647,1.89178015 664.567395,1.38046635 C670.855061,0.869151185 678.813901,0.873816205 682.253594,1.39079545 C685.693372,1.90760819 689.411388,3.23612765 690.515777,4.34272698 C692.039977,5.87017312 692.199172,7.21085466 691.176334,9.90654582 C690.435224,11.8598382 686.344201,18.4414558 682.085089,24.5324165 C677.82606,30.623212 669.108653,40.8590064 662.713168,47.2786818 C655.401332,54.6178575 646.787508,61.5401854 639.507844,65.9269301 C633.140456,69.7638739 623.333956,74.7305755 617.715658,76.9637677 C612.09736,79.1971251 601.065099,82.3046674 593.199449,83.8697667 C585.333805,85.4347009 574.283331,87.1112598 568.642838,87.5950857 Z" id="Athena-with-Face-Vector"></path>
                <g id="Wisdom-That-Drives-G" transform="translate(-1, 1041)" fill-rule="nonzero">
                    <path d="M64.6809082,15.3144531 L64.6809082,16.5610352 C63.4904785,16.5610352 62.5246582,16.7744141 61.7834473,17.2011719 C61.0422363,17.6279297 60.3347168,18.425293 59.6608887,19.5932617 C59.2116699,20.3793945 58.5041504,22.2548828 57.5383301,25.2197266 L44.8029785,62.0444336 L43.4553223,62.0444336 L33.0446777,32.8339844 L22.701416,62.0444336 L21.4885254,62.0444336 L7.91088867,24.1079102 C6.90014648,21.277832 6.26000977,19.6044922 5.99047852,19.0878906 C5.54125977,18.234375 4.92919922,17.5998535 4.15429688,17.1843262 C3.37939453,16.7687988 2.3293457,16.5610352 1.00415039,16.5610352 L1.00415039,15.3144531 L17.9172363,15.3144531 L17.9172363,16.5610352 L17.1086426,16.5610352 C15.9182129,16.5610352 15.0085449,16.8305664 14.3796387,17.3696289 C13.7507324,17.9086914 13.4362793,18.5600586 13.4362793,19.3237305 C13.4362793,20.1098633 13.9304199,21.9179688 14.9187012,24.7480469 L23.9143066,50.387207 L31.494873,28.5888672 L30.1472168,24.7480469 L29.0690918,21.6821289 C28.5974121,20.559082 28.0695801,19.5708008 27.4855957,18.7172852 C27.1936035,18.2905273 26.8342285,17.9311523 26.4074707,17.6391602 C25.8459473,17.2348633 25.2844238,16.9428711 24.7229004,16.7631836 C24.2961426,16.628418 23.6223145,16.5610352 22.701416,16.5610352 L22.701416,15.3144531 L40.4904785,15.3144531 L40.4904785,16.5610352 L39.2775879,16.5610352 C38.0197754,16.5610352 37.098877,16.8305664 36.5148926,17.3696289 C35.9309082,17.9086914 35.638916,18.6386719 35.638916,19.5595703 C35.638916,20.7050781 36.1442871,22.7041016 37.1550293,25.5566406 L45.9147949,50.387207 L54.6071777,25.2197266 C55.595459,22.4345703 56.0895996,20.5029297 56.0895996,19.4248047 C56.0895996,18.9082031 55.9267578,18.425293 55.6010742,17.9760742 C55.2753906,17.5268555 54.8654785,17.2124023 54.3713379,17.0327148 C53.5178223,16.7182617 52.4060059,16.5610352 51.0358887,16.5610352 L51.0358887,15.3144531 L64.6809082,15.3144531 Z" id="Path"></path>
                    <path d="M72.463623,13.0908203 C73.4069824,13.0908203 74.2099609,13.4221191 74.8725586,14.0847168 C75.5351562,14.7473145 75.8664551,15.550293 75.8664551,16.4936523 C75.8664551,17.4370117 75.5351562,18.2456055 74.8725586,18.9194336 C74.2099609,19.5932617 73.4069824,19.9301758 72.463623,19.9301758 C71.5202637,19.9301758 70.7116699,19.5932617 70.0378418,18.9194336 C69.3640137,18.2456055 69.0270996,17.4370117 69.0270996,16.4936523 C69.0270996,15.550293 69.3583984,14.7473145 70.0209961,14.0847168 C70.6835938,13.4221191 71.4978027,13.0908203 72.463623,13.0908203 Z M75.2600098,29.2290039 L75.2600098,54.0258789 C75.2600098,55.9575195 75.4003906,57.2434082 75.6811523,57.8835449 C75.9619141,58.5236816 76.3774414,59.0009766 76.9277344,59.3154297 C77.4780273,59.6298828 78.4831543,59.7871094 79.9431152,59.7871094 L79.9431152,61 L64.9504395,61 L64.9504395,59.7871094 C66.4553223,59.7871094 67.4660645,59.6411133 67.982666,59.3491211 C68.4992676,59.0571289 68.9091797,58.5742188 69.2124023,57.9003906 C69.515625,57.2265625 69.6672363,55.9350586 69.6672363,54.0258789 L69.6672363,42.1328125 C69.6672363,38.7861328 69.5661621,36.6186523 69.3640137,35.6303711 C69.2067871,34.9116211 68.9597168,34.4118652 68.6228027,34.1311035 C68.2858887,33.8503418 67.8254395,33.7099609 67.2414551,33.7099609 C66.6125488,33.7099609 65.848877,33.878418 64.9504395,34.215332 L64.4787598,33.0024414 L73.7775879,29.2290039 L75.2600098,29.2290039 Z" id="Shape"></path>
                    <path d="M103.729248,29.2290039 L103.729248,39.7407227 L102.617432,39.7407227 C101.763916,36.4389648 100.668945,34.1928711 99.3325195,33.0024414 C97.9960938,31.8120117 96.2946777,31.2167969 94.2282715,31.2167969 C92.6560059,31.2167969 91.3869629,31.6323242 90.4211426,32.4633789 C89.4553223,33.2944336 88.9724121,34.215332 88.9724121,35.2260742 C88.9724121,36.4838867 89.3317871,37.5620117 90.0505371,38.4604492 C90.7468262,39.3813477 92.1618652,40.3583984 94.2956543,41.3916016 L99.2145996,43.7836914 C103.77417,46.0073242 106.053955,48.9384766 106.053955,52.5771484 C106.053955,55.3847656 104.992676,57.6477051 102.870117,59.3659668 C100.747559,61.0842285 98.3723145,61.9433594 95.7443848,61.9433594 C93.857666,61.9433594 91.701416,61.6064453 89.2756348,60.9326172 C88.5344238,60.7080078 87.9279785,60.5957031 87.4562988,60.5957031 C86.9396973,60.5957031 86.5354004,60.8876953 86.2434082,61.4716797 L85.1315918,61.4716797 L85.1315918,50.4545898 L86.2434082,50.4545898 C86.8723145,53.5991211 88.0739746,55.96875 89.8483887,57.5634766 C91.6228027,59.1582031 93.6105957,59.9555664 95.8117676,59.9555664 C97.3615723,59.9555664 98.625,59.5007324 99.6020508,58.5910645 C100.579102,57.6813965 101.067627,56.5864258 101.067627,55.3061523 C101.067627,53.7563477 100.522949,52.4536133 99.4335938,51.3979492 C98.3442383,50.3422852 96.1711426,49.0058594 92.9143066,47.3886719 C89.6574707,45.7714844 87.5236816,44.3115234 86.5129395,43.0087891 C85.5021973,41.7285156 84.9968262,40.1113281 84.9968262,38.1572266 C84.9968262,35.6191406 85.8671875,33.496582 87.6079102,31.7895508 C89.3486328,30.0825195 91.6003418,29.2290039 94.3630371,29.2290039 C95.5759277,29.2290039 97.0471191,29.4873047 98.7766113,30.0039062 C99.9221191,30.3408203 100.685791,30.5092773 101.067627,30.5092773 C101.427002,30.5092773 101.707764,30.4306641 101.909912,30.2734375 C102.112061,30.1162109 102.3479,29.7680664 102.617432,29.2290039 L103.729248,29.2290039 Z" id="Path"></path>
                    <path d="M132.434326,57.5297852 C130.929443,59.1020508 129.458252,60.2307129 128.020752,60.9157715 C126.583252,61.6008301 125.033447,61.9433594 123.371338,61.9433594 C120.002197,61.9433594 117.059814,60.5339355 114.544189,57.7150879 C112.028564,54.8962402 110.770752,51.2744141 110.770752,46.8496094 C110.770752,42.4248047 112.16333,38.3762207 114.948486,34.7038574 C117.733643,31.0314941 121.316162,29.1953125 125.696045,29.1953125 C128.413818,29.1953125 130.659912,30.0600586 132.434326,31.7895508 L132.434326,26.0957031 C132.434326,22.5693359 132.350098,20.4018555 132.181641,19.5932617 C132.013184,18.784668 131.749268,18.234375 131.389893,17.9423828 C131.030518,17.6503906 130.581299,17.5043945 130.042236,17.5043945 C129.458252,17.5043945 128.68335,17.684082 127.717529,18.043457 L127.279541,16.8642578 L136.477295,13.0908203 L137.993408,13.0908203 L137.993408,48.7700195 C137.993408,52.3862305 138.077637,54.5930176 138.246094,55.3903809 C138.414551,56.1877441 138.684082,56.7436523 139.054688,57.0581055 C139.425293,57.3725586 139.857666,57.5297852 140.351807,57.5297852 C140.958252,57.5297852 141.766846,57.3388672 142.777588,56.9570312 L143.148193,58.1362305 L133.984131,61.9433594 L132.434326,61.9433594 L132.434326,57.5297852 Z M132.434326,55.1713867 L132.434326,39.269043 C132.299561,37.7416992 131.895264,36.3491211 131.221436,35.0913086 C130.547607,33.8334961 129.654785,32.8845215 128.542969,32.2443848 C127.431152,31.604248 126.347412,31.2841797 125.291748,31.2841797 C123.315186,31.2841797 121.552002,32.1713867 120.002197,33.9458008 C117.958252,36.2817383 116.936279,39.6958008 116.936279,44.1879883 C116.936279,48.7250977 117.924561,52.2009277 119.901123,54.6154785 C121.877686,57.0300293 124.078857,58.2373047 126.504639,58.2373047 C128.548584,58.2373047 130.525146,57.215332 132.434326,55.1713867 Z" id="Shape"></path>
                    <path d="M160.229736,29.2290039 C164.901611,29.2290039 168.652588,31.003418 171.482666,34.5522461 C173.885986,37.5844727 175.087646,41.065918 175.087646,44.996582 C175.087646,47.7592773 174.425049,50.5556641 173.099854,53.3857422 C171.774658,56.2158203 169.949707,58.3496094 167.625,59.7871094 C165.300293,61.2246094 162.71167,61.9433594 159.859131,61.9433594 C155.209717,61.9433594 151.514893,60.090332 148.774658,56.3842773 C146.461182,53.262207 145.304443,49.7583008 145.304443,45.8725586 C145.304443,43.0424805 146.006348,40.229248 147.410156,37.4328613 C148.813965,34.6364746 150.661377,32.5700684 152.952393,31.2336426 C155.243408,29.8972168 157.669189,29.2290039 160.229736,29.2290039 Z M159.185303,31.4189453 C157.994873,31.4189453 156.798828,31.7727051 155.597168,32.4802246 C154.395508,33.1877441 153.424072,34.4287109 152.682861,36.203125 C151.94165,37.9775391 151.571045,40.2573242 151.571045,43.0424805 C151.571045,47.534668 152.463867,51.4091797 154.249512,54.6660156 C156.035156,57.9228516 158.387939,59.5512695 161.307861,59.5512695 C163.486572,59.5512695 165.283447,58.652832 166.698486,56.855957 C168.113525,55.059082 168.821045,51.9707031 168.821045,47.5908203 C168.821045,42.1103516 167.641846,37.7978516 165.283447,34.6533203 C163.688721,32.4970703 161.656006,31.4189453 159.185303,31.4189453 Z" id="Shape"></path>
                    <path d="M188.800049,35.7988281 C191.046143,33.5527344 192.371338,32.2612305 192.775635,31.9243164 C193.786377,31.0708008 194.875732,30.4082031 196.043701,29.9365234 C197.21167,29.4648438 198.368408,29.2290039 199.513916,29.2290039 C201.445557,29.2290039 203.107666,29.7905273 204.500244,30.9135742 C205.892822,32.0366211 206.824951,33.6650391 207.296631,35.7988281 C209.610107,33.1035156 211.564209,31.3347168 213.158936,30.4924316 C214.753662,29.6501465 216.393311,29.2290039 218.077881,29.2290039 C219.717529,29.2290039 221.171875,29.6501465 222.440918,30.4924316 C223.709961,31.3347168 224.715088,32.7104492 225.456299,34.6196289 C225.950439,35.9223633 226.19751,37.9663086 226.19751,40.7514648 L226.19751,54.0258789 C226.19751,55.9575195 226.343506,57.2827148 226.635498,58.0014648 C226.860107,58.4956055 227.275635,58.916748 227.88208,59.2648926 C228.488525,59.6130371 229.476807,59.7871094 230.846924,59.7871094 L230.846924,61 L215.618408,61 L215.618408,59.7871094 L216.258545,59.7871094 C217.58374,59.7871094 218.616943,59.5288086 219.358154,59.012207 C219.874756,58.652832 220.245361,58.0800781 220.469971,57.2939453 C220.559814,56.9121094 220.604736,55.8227539 220.604736,54.0258789 L220.604736,40.7514648 C220.604736,38.2358398 220.301514,36.4614258 219.695068,35.4282227 C218.819092,33.9907227 217.415283,33.2719727 215.483643,33.2719727 C214.293213,33.2719727 213.097168,33.5695801 211.895508,34.1647949 C210.693848,34.7600098 209.239502,35.8662109 207.532471,37.4833984 L207.465088,37.8540039 L207.532471,39.3027344 L207.532471,54.0258789 C207.532471,56.137207 207.650391,57.4511719 207.88623,57.9677734 C208.12207,58.484375 208.565674,58.916748 209.217041,59.2648926 C209.868408,59.6130371 210.980225,59.7871094 212.55249,59.7871094 L212.55249,61 L196.953369,61 L196.953369,59.7871094 C198.6604,59.7871094 199.833984,59.5849609 200.474121,59.1806641 C201.114258,58.7763672 201.557861,58.1699219 201.804932,57.3613281 C201.917236,56.9794922 201.973389,55.8676758 201.973389,54.0258789 L201.973389,40.7514648 C201.973389,38.2358398 201.602783,36.4277344 200.861572,35.3271484 C199.873291,33.8896484 198.491943,33.1708984 196.717529,33.1708984 C195.504639,33.1708984 194.302979,33.496582 193.112549,34.1479492 C191.248291,35.1362305 189.810791,36.2480469 188.800049,37.4833984 L188.800049,54.0258789 C188.800049,56.0473633 188.94043,57.3613281 189.221191,57.9677734 C189.501953,58.5742188 189.91748,59.0290527 190.467773,59.3322754 C191.018066,59.635498 192.135498,59.7871094 193.820068,59.7871094 L193.820068,61 L178.557861,61 L178.557861,59.7871094 C179.9729,59.7871094 180.961182,59.635498 181.522705,59.3322754 C182.084229,59.0290527 182.510986,58.5461426 182.802979,57.8835449 C183.094971,57.2209473 183.240967,55.9350586 183.240967,54.0258789 L183.240967,42.2338867 C183.240967,38.8422852 183.139893,36.6523438 182.937744,35.6640625 C182.780518,34.9228516 182.533447,34.4118652 182.196533,34.1311035 C181.859619,33.8503418 181.39917,33.7099609 180.815186,33.7099609 C180.186279,33.7099609 179.433838,33.878418 178.557861,34.215332 L178.05249,33.0024414 L187.351318,29.2290039 L188.800049,29.2290039 L188.800049,35.7988281 Z" id="Path"></path>
                    <path d="M287.077881,15.3144531 L287.583252,26.0283203 L286.302979,26.0283203 C286.055908,24.1416016 285.718994,22.7939453 285.292236,21.9853516 C284.595947,20.6826172 283.669434,19.7224121 282.512695,19.1047363 C281.355957,18.4870605 279.834229,18.1782227 277.94751,18.1782227 L271.512451,18.1782227 L271.512451,53.0825195 C271.512451,55.8901367 271.815674,57.6420898 272.422119,58.3383789 C273.275635,59.2817383 274.5896,59.753418 276.364014,59.753418 L277.94751,59.753418 L277.94751,61 L258.574951,61 L258.574951,59.753418 L260.192139,59.753418 C262.123779,59.753418 263.493896,59.1694336 264.30249,58.0014648 C264.796631,57.2827148 265.043701,55.6430664 265.043701,53.0825195 L265.043701,18.1782227 L259.552002,18.1782227 C257.418213,18.1782227 255.9021,18.3354492 255.003662,18.6499023 C253.835693,19.0766602 252.836182,19.8964844 252.005127,21.109375 C251.174072,22.3222656 250.679932,23.9619141 250.522705,26.0283203 L249.242432,26.0283203 L249.781494,15.3144531 L287.077881,15.3144531 Z" id="Path"></path>
                    <path d="M300.520752,13.0908203 L300.520752,35.6640625 C303.013916,32.9238281 304.990479,31.1662598 306.450439,30.3913574 C307.9104,29.6164551 309.370361,29.2290039 310.830322,29.2290039 C312.582275,29.2290039 314.087158,29.7119141 315.344971,30.6777344 C316.602783,31.6435547 317.534912,33.159668 318.141357,35.2260742 C318.568115,36.6635742 318.781494,39.2915039 318.781494,43.1098633 L318.781494,54.0258789 C318.781494,55.9799805 318.938721,57.3164062 319.253174,58.0351562 C319.477783,58.5742188 319.859619,59.0009766 320.398682,59.3154297 C320.937744,59.6298828 321.926025,59.7871094 323.363525,59.7871094 L323.363525,61 L308.202393,61 L308.202393,59.7871094 L308.909912,59.7871094 C310.347412,59.7871094 311.346924,59.5681152 311.908447,59.130127 C312.469971,58.6921387 312.863037,58.0463867 313.087646,57.1928711 C313.155029,56.8334961 313.188721,55.777832 313.188721,54.0258789 L313.188721,43.1098633 C313.188721,39.7407227 313.014648,37.5283203 312.666504,36.4726562 C312.318359,35.4169922 311.762451,34.6252441 310.998779,34.0974121 C310.235107,33.5695801 309.314209,33.3056641 308.236084,33.3056641 C307.135498,33.3056641 305.98999,33.5976562 304.799561,34.1816406 C303.609131,34.765625 302.182861,35.9448242 300.520752,37.7192383 L300.520752,54.0258789 C300.520752,56.137207 300.638672,57.4511719 300.874512,57.9677734 C301.110352,58.484375 301.54834,58.916748 302.188477,59.2648926 C302.828613,59.6130371 303.934814,59.7871094 305.50708,59.7871094 L305.50708,61 L290.211182,61 L290.211182,59.7871094 C291.581299,59.7871094 292.659424,59.5737305 293.445557,59.1469727 C293.894775,58.9223633 294.25415,58.4956055 294.523682,57.8666992 C294.793213,57.237793 294.927979,55.9575195 294.927979,54.0258789 L294.927979,26.0957031 C294.927979,22.5693359 294.84375,20.4018555 294.675293,19.5932617 C294.506836,18.784668 294.248535,18.234375 293.900391,17.9423828 C293.552246,17.6503906 293.086182,17.5043945 292.502197,17.5043945 C292.030518,17.5043945 291.266846,17.684082 290.211182,18.043457 L289.739502,16.8642578 L298.970947,13.0908203 L300.520752,13.0908203 Z" id="Path"></path>
                    <path d="M343.443604,56.5527344 C340.276611,59.0009766 338.288818,60.4160156 337.480225,60.7978516 C336.267334,61.359375 334.97583,61.6401367 333.605713,61.6401367 C331.471924,61.6401367 329.714355,60.9101562 328.333008,59.4501953 C326.95166,57.9902344 326.260986,56.0698242 326.260986,53.6889648 C326.260986,52.184082 326.5979,50.8813477 327.271729,49.7807617 C328.192627,48.253418 329.792969,46.815918 332.072754,45.4682617 C334.352539,44.1206055 338.142822,42.480957 343.443604,40.5493164 L343.443604,39.3364258 C343.443604,36.2592773 342.955078,34.1479492 341.978027,33.0024414 C341.000977,31.8569336 339.580322,31.2841797 337.716064,31.2841797 C336.301025,31.2841797 335.177979,31.6660156 334.346924,32.4296875 C333.493408,33.1933594 333.06665,34.0693359 333.06665,35.0576172 L333.134033,37.0117188 C333.134033,38.0449219 332.870117,38.8422852 332.342285,39.4038086 C331.814453,39.965332 331.123779,40.2460938 330.270264,40.2460938 C329.439209,40.2460938 328.759766,39.9541016 328.231934,39.3701172 C327.704102,38.7861328 327.440186,37.9887695 327.440186,36.9780273 C327.440186,35.0463867 328.428467,33.2719727 330.405029,31.6547852 C332.381592,30.0375977 335.155518,29.2290039 338.726807,29.2290039 C341.467041,29.2290039 343.713135,29.6894531 345.465088,30.6103516 C346.790283,31.3066406 347.767334,32.3959961 348.39624,33.878418 C348.800537,34.8442383 349.002686,36.8208008 349.002686,39.8081055 L349.002686,50.2861328 C349.002686,53.2285156 349.058838,55.0310059 349.171143,55.6936035 C349.283447,56.3562012 349.46875,56.7998047 349.727051,57.0244141 C349.985352,57.2490234 350.282959,57.3613281 350.619873,57.3613281 C350.979248,57.3613281 351.293701,57.2827148 351.563232,57.1254883 C352.034912,56.8334961 352.94458,56.0136719 354.292236,54.6660156 L354.292236,56.5527344 C351.776611,59.921875 349.373291,61.6064453 347.082275,61.6064453 C345.981689,61.6064453 345.105713,61.2246094 344.454346,60.4609375 C343.802979,59.6972656 343.466064,58.3945312 343.443604,56.5527344 Z M343.443604,54.362793 L343.443604,42.6044922 C340.052002,43.9521484 337.862061,44.9067383 336.873779,45.4682617 C335.099365,46.456543 333.830322,47.4897461 333.06665,48.5678711 C332.302979,49.6459961 331.921143,50.8251953 331.921143,52.1054688 C331.921143,53.7226562 332.404053,55.0646973 333.369873,56.1315918 C334.335693,57.1984863 335.44751,57.7319336 336.705322,57.7319336 C338.412354,57.7319336 340.658447,56.6088867 343.443604,54.362793 Z" id="Shape"></path>
                    <path d="M365.545166,19.9975586 L365.545166,30.1386719 L372.755127,30.1386719 L372.755127,32.4970703 L365.545166,32.4970703 L365.545166,52.5097656 C365.545166,54.5087891 365.831543,55.8564453 366.404297,56.5527344 C366.977051,57.2490234 367.712646,57.597168 368.611084,57.597168 C369.352295,57.597168 370.071045,57.3669434 370.767334,56.9064941 C371.463623,56.4460449 372.002686,55.7666016 372.384521,54.8681641 L373.698486,54.8681641 C372.912354,57.0693359 371.800537,58.7258301 370.363037,59.8376465 C368.925537,60.9494629 367.443115,61.5053711 365.915771,61.5053711 C364.882568,61.5053711 363.871826,61.2189941 362.883545,60.6462402 C361.895264,60.0734863 361.165283,59.2536621 360.693604,58.1867676 C360.221924,57.119873 359.986084,55.4746094 359.986084,53.2509766 L359.986084,32.4970703 L355.10083,32.4970703 L355.10083,31.3852539 C356.336182,30.8911133 357.599609,30.0544434 358.891113,28.8752441 C360.182617,27.6960449 361.33374,26.2978516 362.344482,24.6806641 C362.861084,23.8271484 363.579834,22.2661133 364.500732,19.9975586 L365.545166,19.9975586 Z" id="Path"></path>
                    <path d="M392.026611,61 L392.026611,59.753418 L393.744873,59.753418 C395.676514,59.753418 397.046631,59.1357422 397.855225,57.9003906 C398.349365,57.1591797 398.596436,55.4970703 398.596436,52.9140625 L398.596436,23.4003906 C398.596436,20.5478516 398.281982,18.762207 397.653076,18.043457 C396.7771,17.0551758 395.474365,16.5610352 393.744873,16.5610352 L392.026611,16.5610352 L392.026611,15.3144531 L410.624268,15.3144531 C417.452393,15.3144531 422.646484,16.0893555 426.206543,17.6391602 C429.766602,19.1889648 432.630371,21.7719727 434.797852,25.3881836 C436.965332,29.0043945 438.049072,33.1821289 438.049072,37.9213867 C438.049072,44.277832 436.117432,49.5898438 432.25415,53.8574219 C427.919189,58.6191406 421.315674,61 412.443604,61 L392.026611,61 Z M405.065186,57.6982422 C407.917725,58.3271484 410.309814,58.6416016 412.241455,58.6416016 C417.452393,58.6416016 421.776123,56.8110352 425.212646,53.1499023 C428.64917,49.4887695 430.367432,44.5249023 430.367432,38.2583008 C430.367432,31.9467773 428.64917,26.9716797 425.212646,23.3330078 C421.776123,19.6943359 417.362549,17.875 411.971924,17.875 C409.950439,17.875 407.648193,18.2006836 405.065186,18.8520508 L405.065186,57.6982422 Z" id="Shape"></path>
                    <path d="M451.862549,29.2290039 L451.862549,36.1694336 C454.445557,31.5424805 457.095947,29.2290039 459.813721,29.2290039 C461.049072,29.2290039 462.071045,29.6052246 462.879639,30.357666 C463.688232,31.1101074 464.092529,31.9804688 464.092529,32.96875 C464.092529,33.8447266 463.800537,34.5859375 463.216553,35.1923828 C462.632568,35.7988281 461.936279,36.1020508 461.127686,36.1020508 C460.341553,36.1020508 459.459961,35.7145996 458.48291,34.9396973 C457.505859,34.1647949 456.781494,33.7773438 456.309814,33.7773438 C455.905518,33.7773438 455.467529,34.0019531 454.99585,34.4511719 C453.985107,35.3720703 452.940674,36.8881836 451.862549,38.9995117 L451.862549,53.7900391 C451.862549,55.4970703 452.075928,56.7885742 452.502686,57.6645508 C452.794678,58.2709961 453.311279,58.7763672 454.05249,59.1806641 C454.793701,59.5849609 455.860596,59.7871094 457.253174,59.7871094 L457.253174,61 L441.451904,61 L441.451904,59.7871094 C443.02417,59.7871094 444.192139,59.5400391 444.955811,59.0458984 C445.517334,58.6865234 445.9104,58.1137695 446.13501,57.3276367 C446.247314,56.9458008 446.303467,55.8564453 446.303467,54.0595703 L446.303467,42.0991211 C446.303467,38.5053711 446.230469,36.3659668 446.084473,35.6809082 C445.938477,34.9958496 445.668945,34.4960938 445.275879,34.1816406 C444.882812,33.8671875 444.394287,33.7099609 443.810303,33.7099609 C443.114014,33.7099609 442.327881,33.878418 441.451904,34.215332 L441.11499,33.0024414 L450.44751,29.2290039 L451.862549,29.2290039 Z" id="Path"></path>
                    <path d="M473.660889,13.0908203 C474.604248,13.0908203 475.407227,13.4221191 476.069824,14.0847168 C476.732422,14.7473145 477.063721,15.550293 477.063721,16.4936523 C477.063721,17.4370117 476.732422,18.2456055 476.069824,18.9194336 C475.407227,19.5932617 474.604248,19.9301758 473.660889,19.9301758 C472.717529,19.9301758 471.908936,19.5932617 471.235107,18.9194336 C470.561279,18.2456055 470.224365,17.4370117 470.224365,16.4936523 C470.224365,15.550293 470.555664,14.7473145 471.218262,14.0847168 C471.880859,13.4221191 472.695068,13.0908203 473.660889,13.0908203 Z M476.457275,29.2290039 L476.457275,54.0258789 C476.457275,55.9575195 476.597656,57.2434082 476.878418,57.8835449 C477.15918,58.5236816 477.574707,59.0009766 478.125,59.3154297 C478.675293,59.6298828 479.68042,59.7871094 481.140381,59.7871094 L481.140381,61 L466.147705,61 L466.147705,59.7871094 C467.652588,59.7871094 468.66333,59.6411133 469.179932,59.3491211 C469.696533,59.0571289 470.106445,58.5742188 470.409668,57.9003906 C470.712891,57.2265625 470.864502,55.9350586 470.864502,54.0258789 L470.864502,42.1328125 C470.864502,38.7861328 470.763428,36.6186523 470.561279,35.6303711 C470.404053,34.9116211 470.156982,34.4118652 469.820068,34.1311035 C469.483154,33.8503418 469.022705,33.7099609 468.438721,33.7099609 C467.809814,33.7099609 467.046143,33.878418 466.147705,34.215332 L465.676025,33.0024414 L474.974854,29.2290039 L476.457275,29.2290039 Z" id="Shape"></path>
                    <path d="M483.397705,30.1386719 L497.918701,30.1386719 L497.918701,31.3852539 L496.975342,31.3852539 C496.099365,31.3852539 495.431152,31.5986328 494.970703,32.0253906 C494.510254,32.4521484 494.280029,33.0249023 494.280029,33.7436523 C494.280029,34.5297852 494.515869,35.4619141 494.987549,36.5400391 L502.163818,53.5878906 L509.373779,35.8999023 C509.890381,34.6420898 510.148682,33.6875 510.148682,33.0361328 C510.148682,32.7216797 510.058838,32.4633789 509.87915,32.2612305 C509.63208,31.9243164 509.317627,31.6940918 508.935791,31.5705566 C508.553955,31.4470215 507.779053,31.3852539 506.611084,31.3852539 L506.611084,30.1386719 L516.684814,30.1386719 L516.684814,31.3852539 C515.516846,31.4750977 514.708252,31.7109375 514.259033,32.0927734 C513.4729,32.7666016 512.765381,33.8896484 512.136475,35.4619141 L501.186768,61.9433594 L499.80542,61.9433594 L488.78833,35.8999023 C488.294189,34.6870117 487.82251,33.8166504 487.373291,33.2888184 C486.924072,32.7609863 486.351318,32.3173828 485.655029,31.9580078 C485.273193,31.7558594 484.520752,31.5649414 483.397705,31.3852539 L483.397705,30.1386719 Z" id="Path"></path>
                    <path d="M524.669678,41.762207 C524.647217,46.3442383 525.759033,49.9379883 528.005127,52.543457 C530.251221,55.1489258 532.890381,56.4516602 535.922607,56.4516602 C537.944092,56.4516602 539.70166,55.895752 541.195312,54.7839355 C542.688965,53.6721191 543.941162,51.7685547 544.951904,49.0732422 L545.996338,49.7470703 C545.524658,52.8242188 544.154541,55.6262207 541.885986,58.1530762 C539.617432,60.6799316 536.776123,61.9433594 533.362061,61.9433594 C529.656006,61.9433594 526.483398,60.5002441 523.844238,57.6140137 C521.205078,54.7277832 519.885498,50.8476562 519.885498,45.9736328 C519.885498,40.6953125 521.23877,36.5793457 523.945312,33.6257324 C526.651855,30.6721191 530.049072,29.1953125 534.136963,29.1953125 C537.595947,29.1953125 540.437256,30.3352051 542.660889,32.6149902 C544.884521,34.8947754 545.996338,37.9438477 545.996338,41.762207 L524.669678,41.762207 Z M524.669678,39.8081055 L538.954834,39.8081055 C538.842529,37.831543 538.606689,36.4389648 538.247314,35.6303711 C537.685791,34.3725586 536.849121,33.3842773 535.737305,32.6655273 C534.625488,31.9467773 533.463135,31.5874023 532.250244,31.5874023 C530.385986,31.5874023 528.718262,32.3117676 527.24707,33.760498 C525.775879,35.2092285 524.916748,37.2250977 524.669678,39.8081055 Z" id="Shape"></path>
                    <path d="M570.052002,29.2290039 L570.052002,39.7407227 L568.940186,39.7407227 C568.08667,36.4389648 566.991699,34.1928711 565.655273,33.0024414 C564.318848,31.8120117 562.617432,31.2167969 560.551025,31.2167969 C558.97876,31.2167969 557.709717,31.6323242 556.743896,32.4633789 C555.778076,33.2944336 555.295166,34.215332 555.295166,35.2260742 C555.295166,36.4838867 555.654541,37.5620117 556.373291,38.4604492 C557.06958,39.3813477 558.484619,40.3583984 560.618408,41.3916016 L565.537354,43.7836914 C570.096924,46.0073242 572.376709,48.9384766 572.376709,52.5771484 C572.376709,55.3847656 571.31543,57.6477051 569.192871,59.3659668 C567.070312,61.0842285 564.695068,61.9433594 562.067139,61.9433594 C560.18042,61.9433594 558.02417,61.6064453 555.598389,60.9326172 C554.857178,60.7080078 554.250732,60.5957031 553.779053,60.5957031 C553.262451,60.5957031 552.858154,60.8876953 552.566162,61.4716797 L551.454346,61.4716797 L551.454346,50.4545898 L552.566162,50.4545898 C553.195068,53.5991211 554.396729,55.96875 556.171143,57.5634766 C557.945557,59.1582031 559.93335,59.9555664 562.134521,59.9555664 C563.684326,59.9555664 564.947754,59.5007324 565.924805,58.5910645 C566.901855,57.6813965 567.390381,56.5864258 567.390381,55.3061523 C567.390381,53.7563477 566.845703,52.4536133 565.756348,51.3979492 C564.666992,50.3422852 562.493896,49.0058594 559.237061,47.3886719 C555.980225,45.7714844 553.846436,44.3115234 552.835693,43.0087891 C551.824951,41.7285156 551.31958,40.1113281 551.31958,38.1572266 C551.31958,35.6191406 552.189941,33.496582 553.930664,31.7895508 C555.671387,30.0825195 557.923096,29.2290039 560.685791,29.2290039 C561.898682,29.2290039 563.369873,29.4873047 565.099365,30.0039062 C566.244873,30.3408203 567.008545,30.5092773 567.390381,30.5092773 C567.749756,30.5092773 568.030518,30.4306641 568.232666,30.2734375 C568.434814,30.1162109 568.670654,29.7680664 568.940186,29.2290039 L570.052002,29.2290039 Z" id="Path"></path>
                    <path d="M634.402588,14.2700195 L635.581787,28.6899414 L634.402588,28.6899414 C633.212158,25.0961914 631.673584,22.3896484 629.786865,20.5703125 C627.069092,17.9423828 623.576416,16.628418 619.308838,16.628418 C613.491455,16.628418 609.06665,18.9306641 606.034424,23.5351562 C603.496338,27.4208984 602.227295,32.0478516 602.227295,37.4160156 C602.227295,41.7734375 603.06958,45.7490234 604.75415,49.3427734 C606.438721,52.9365234 608.645508,55.5700684 611.374512,57.2434082 C614.103516,58.916748 616.905518,59.753418 619.780518,59.753418 C621.465088,59.753418 623.093506,59.5400391 624.665771,59.1132812 C626.238037,58.6865234 627.75415,58.0576172 629.214111,57.2265625 L629.214111,44.0195312 C629.214111,41.7285156 629.040039,40.229248 628.691895,39.5217285 C628.34375,38.814209 627.804688,38.2751465 627.074707,37.904541 C626.344727,37.5339355 625.058838,37.3486328 623.217041,37.3486328 L623.217041,36.0683594 L640.905029,36.0683594 L640.905029,37.3486328 L640.062744,37.3486328 C638.310791,37.3486328 637.109131,37.9326172 636.457764,39.1005859 C636.008545,39.9316406 635.783936,41.5712891 635.783936,44.0195312 L635.783936,58.0014648 C633.200928,59.394043 630.651611,60.4160156 628.135986,61.0673828 C625.620361,61.71875 622.823975,62.0444336 619.746826,62.0444336 C610.919678,62.0444336 604.215088,59.2143555 599.633057,53.5541992 C596.196533,49.309082 594.478271,44.4125977 594.478271,38.8647461 C594.478271,34.8442383 595.444092,30.9921875 597.375732,27.3085938 C599.666748,22.9287109 602.811279,19.5595703 606.809326,17.2011719 C610.156006,15.2470703 614.109131,14.2700195 618.668701,14.2700195 C620.330811,14.2700195 621.841309,14.4047852 623.200195,14.6743164 C624.559082,14.9438477 626.485107,15.5390625 628.978271,16.4599609 C630.236084,16.9316406 631.078369,17.1674805 631.505127,17.1674805 C631.931885,17.1674805 632.296875,16.9709473 632.600098,16.5778809 C632.90332,16.1848145 633.088623,15.4155273 633.156006,14.2700195 L634.402588,14.2700195 Z" id="Path"></path>
                    <path d="M654.651123,13.0908203 L654.651123,54.0258789 C654.651123,55.9575195 654.791504,57.237793 655.072266,57.8666992 C655.353027,58.4956055 655.7854,58.9729004 656.369385,59.298584 C656.953369,59.6242676 658.042725,59.7871094 659.637451,59.7871094 L659.637451,61 L644.51001,61 L644.51001,59.7871094 C645.925049,59.7871094 646.890869,59.6411133 647.407471,59.3491211 C647.924072,59.0571289 648.328369,58.5742188 648.620361,57.9003906 C648.912354,57.2265625 649.05835,55.9350586 649.05835,54.0258789 L649.05835,25.9946289 C649.05835,22.5131836 648.979736,20.3737793 648.82251,19.576416 C648.665283,18.7790527 648.412598,18.234375 648.064453,17.9423828 C647.716309,17.6503906 647.272705,17.5043945 646.733643,17.5043945 C646.149658,17.5043945 645.408447,17.684082 644.51001,18.043457 L643.937256,16.8642578 L653.13501,13.0908203 L654.651123,13.0908203 Z" id="Path"></path>
                    <path d="M678.30249,29.2290039 C682.974365,29.2290039 686.725342,31.003418 689.55542,34.5522461 C691.95874,37.5844727 693.1604,41.065918 693.1604,44.996582 C693.1604,47.7592773 692.497803,50.5556641 691.172607,53.3857422 C689.847412,56.2158203 688.022461,58.3496094 685.697754,59.7871094 C683.373047,61.2246094 680.784424,61.9433594 677.931885,61.9433594 C673.282471,61.9433594 669.587646,60.090332 666.847412,56.3842773 C664.533936,53.262207 663.377197,49.7583008 663.377197,45.8725586 C663.377197,43.0424805 664.079102,40.229248 665.48291,37.4328613 C666.886719,34.6364746 668.734131,32.5700684 671.025146,31.2336426 C673.316162,29.8972168 675.741943,29.2290039 678.30249,29.2290039 Z M677.258057,31.4189453 C676.067627,31.4189453 674.871582,31.7727051 673.669922,32.4802246 C672.468262,33.1877441 671.496826,34.4287109 670.755615,36.203125 C670.014404,37.9775391 669.643799,40.2573242 669.643799,43.0424805 C669.643799,47.534668 670.536621,51.4091797 672.322266,54.6660156 C674.10791,57.9228516 676.460693,59.5512695 679.380615,59.5512695 C681.559326,59.5512695 683.356201,58.652832 684.77124,56.855957 C686.186279,55.059082 686.893799,51.9707031 686.893799,47.5908203 C686.893799,42.1103516 685.7146,37.7978516 683.356201,34.6533203 C681.761475,32.4970703 679.72876,31.4189453 677.258057,31.4189453 Z" id="Shape"></path>
                    <path d="M706.165283,35.4619141 C709.152588,31.3066406 712.375732,29.2290039 715.834717,29.2290039 C719.001709,29.2290039 721.764404,30.5822754 724.122803,33.2888184 C726.481201,35.9953613 727.6604,39.6958008 727.6604,44.3901367 C727.6604,49.8706055 725.841064,54.2841797 722.202393,57.6308594 C719.080322,60.5058594 715.598877,61.9433594 711.758057,61.9433594 C709.961182,61.9433594 708.13623,61.6176758 706.283203,60.9663086 C704.430176,60.3149414 702.537842,59.3378906 700.606201,58.0351562 L700.606201,26.0620117 C700.606201,22.5581055 700.521973,20.4018555 700.353516,19.5932617 C700.185059,18.784668 699.921143,18.234375 699.561768,17.9423828 C699.202393,17.6503906 698.753174,17.5043945 698.214111,17.5043945 C697.585205,17.5043945 696.799072,17.684082 695.855713,18.043457 L695.384033,16.8642578 L704.64917,13.0908203 L706.165283,13.0908203 L706.165283,35.4619141 Z M706.165283,37.6181641 L706.165283,56.0810547 C707.310791,57.2041016 708.495605,58.052002 709.719727,58.6247559 C710.943848,59.1975098 712.196045,59.4838867 713.476318,59.4838867 C715.520264,59.4838867 717.423828,58.3608398 719.187012,56.1147461 C720.950195,53.8686523 721.831787,50.6005859 721.831787,46.3105469 C721.831787,42.3574219 720.950195,39.3195801 719.187012,37.1970215 C717.423828,35.0744629 715.419189,34.0131836 713.173096,34.0131836 C711.982666,34.0131836 710.792236,34.3164062 709.601807,34.9228516 C708.703369,35.3720703 707.557861,36.2705078 706.165283,37.6181641 Z" id="Shape"></path>
                    <path d="M749.69458,56.5527344 C746.527588,59.0009766 744.539795,60.4160156 743.731201,60.7978516 C742.518311,61.359375 741.226807,61.6401367 739.856689,61.6401367 C737.7229,61.6401367 735.965332,60.9101562 734.583984,59.4501953 C733.202637,57.9902344 732.511963,56.0698242 732.511963,53.6889648 C732.511963,52.184082 732.848877,50.8813477 733.522705,49.7807617 C734.443604,48.253418 736.043945,46.815918 738.32373,45.4682617 C740.603516,44.1206055 744.393799,42.480957 749.69458,40.5493164 L749.69458,39.3364258 C749.69458,36.2592773 749.206055,34.1479492 748.229004,33.0024414 C747.251953,31.8569336 745.831299,31.2841797 743.967041,31.2841797 C742.552002,31.2841797 741.428955,31.6660156 740.5979,32.4296875 C739.744385,33.1933594 739.317627,34.0693359 739.317627,35.0576172 L739.38501,37.0117188 C739.38501,38.0449219 739.121094,38.8422852 738.593262,39.4038086 C738.06543,39.965332 737.374756,40.2460938 736.52124,40.2460938 C735.690186,40.2460938 735.010742,39.9541016 734.48291,39.3701172 C733.955078,38.7861328 733.691162,37.9887695 733.691162,36.9780273 C733.691162,35.0463867 734.679443,33.2719727 736.656006,31.6547852 C738.632568,30.0375977 741.406494,29.2290039 744.977783,29.2290039 C747.718018,29.2290039 749.964111,29.6894531 751.716064,30.6103516 C753.04126,31.3066406 754.018311,32.3959961 754.647217,33.878418 C755.051514,34.8442383 755.253662,36.8208008 755.253662,39.8081055 L755.253662,50.2861328 C755.253662,53.2285156 755.309814,55.0310059 755.422119,55.6936035 C755.534424,56.3562012 755.719727,56.7998047 755.978027,57.0244141 C756.236328,57.2490234 756.533936,57.3613281 756.87085,57.3613281 C757.230225,57.3613281 757.544678,57.2827148 757.814209,57.1254883 C758.285889,56.8334961 759.195557,56.0136719 760.543213,54.6660156 L760.543213,56.5527344 C758.027588,59.921875 755.624268,61.6064453 753.333252,61.6064453 C752.232666,61.6064453 751.356689,61.2246094 750.705322,60.4609375 C750.053955,59.6972656 749.717041,58.3945312 749.69458,56.5527344 Z M749.69458,54.362793 L749.69458,42.6044922 C746.302979,43.9521484 744.113037,44.9067383 743.124756,45.4682617 C741.350342,46.456543 740.081299,47.4897461 739.317627,48.5678711 C738.553955,49.6459961 738.172119,50.8251953 738.172119,52.1054688 C738.172119,53.7226562 738.655029,55.0646973 739.62085,56.1315918 C740.58667,57.1984863 741.698486,57.7319336 742.956299,57.7319336 C744.66333,57.7319336 746.909424,56.6088867 749.69458,54.362793 Z" id="Shape"></path>
                    <path d="M773.447021,13.0908203 L773.447021,54.0258789 C773.447021,55.9575195 773.587402,57.237793 773.868164,57.8666992 C774.148926,58.4956055 774.581299,58.9729004 775.165283,59.298584 C775.749268,59.6242676 776.838623,59.7871094 778.43335,59.7871094 L778.43335,61 L763.305908,61 L763.305908,59.7871094 C764.720947,59.7871094 765.686768,59.6411133 766.203369,59.3491211 C766.719971,59.0571289 767.124268,58.5742188 767.41626,57.9003906 C767.708252,57.2265625 767.854248,55.9350586 767.854248,54.0258789 L767.854248,25.9946289 C767.854248,22.5131836 767.775635,20.3737793 767.618408,19.576416 C767.461182,18.7790527 767.208496,18.234375 766.860352,17.9423828 C766.512207,17.6503906 766.068604,17.5043945 765.529541,17.5043945 C764.945557,17.5043945 764.204346,17.684082 763.305908,18.043457 L762.733154,16.8642578 L771.930908,13.0908203 L773.447021,13.0908203 Z" id="Path"></path>
                    <path d="M839.448486,14.2700195 L840.627686,28.6899414 L839.448486,28.6899414 C838.258057,25.0961914 836.719482,22.3896484 834.832764,20.5703125 C832.11499,17.9423828 828.622314,16.628418 824.354736,16.628418 C818.537354,16.628418 814.112549,18.9306641 811.080322,23.5351562 C808.542236,27.4208984 807.273193,32.0478516 807.273193,37.4160156 C807.273193,41.7734375 808.115479,45.7490234 809.800049,49.3427734 C811.484619,52.9365234 813.691406,55.5700684 816.42041,57.2434082 C819.149414,58.916748 821.951416,59.753418 824.826416,59.753418 C826.510986,59.753418 828.139404,59.5400391 829.71167,59.1132812 C831.283936,58.6865234 832.800049,58.0576172 834.26001,57.2265625 L834.26001,44.0195312 C834.26001,41.7285156 834.085938,40.229248 833.737793,39.5217285 C833.389648,38.814209 832.850586,38.2751465 832.120605,37.904541 C831.390625,37.5339355 830.104736,37.3486328 828.262939,37.3486328 L828.262939,36.0683594 L845.950928,36.0683594 L845.950928,37.3486328 L845.108643,37.3486328 C843.356689,37.3486328 842.155029,37.9326172 841.503662,39.1005859 C841.054443,39.9316406 840.829834,41.5712891 840.829834,44.0195312 L840.829834,58.0014648 C838.246826,59.394043 835.69751,60.4160156 833.181885,61.0673828 C830.66626,61.71875 827.869873,62.0444336 824.792725,62.0444336 C815.965576,62.0444336 809.260986,59.2143555 804.678955,53.5541992 C801.242432,49.309082 799.52417,44.4125977 799.52417,38.8647461 C799.52417,34.8442383 800.48999,30.9921875 802.421631,27.3085938 C804.712646,22.9287109 807.857178,19.5595703 811.855225,17.2011719 C815.201904,15.2470703 819.155029,14.2700195 823.7146,14.2700195 C825.376709,14.2700195 826.887207,14.4047852 828.246094,14.6743164 C829.60498,14.9438477 831.531006,15.5390625 834.02417,16.4599609 C835.281982,16.9316406 836.124268,17.1674805 836.551025,17.1674805 C836.977783,17.1674805 837.342773,16.9709473 837.645996,16.5778809 C837.949219,16.1848145 838.134521,15.4155273 838.201904,14.2700195 L839.448486,14.2700195 Z" id="Path"></path>
                    <path d="M858.113525,29.2290039 L858.113525,36.1694336 C860.696533,31.5424805 863.346924,29.2290039 866.064697,29.2290039 C867.300049,29.2290039 868.322021,29.6052246 869.130615,30.357666 C869.939209,31.1101074 870.343506,31.9804688 870.343506,32.96875 C870.343506,33.8447266 870.051514,34.5859375 869.467529,35.1923828 C868.883545,35.7988281 868.187256,36.1020508 867.378662,36.1020508 C866.592529,36.1020508 865.710938,35.7145996 864.733887,34.9396973 C863.756836,34.1647949 863.032471,33.7773438 862.560791,33.7773438 C862.156494,33.7773438 861.718506,34.0019531 861.246826,34.4511719 C860.236084,35.3720703 859.19165,36.8881836 858.113525,38.9995117 L858.113525,53.7900391 C858.113525,55.4970703 858.326904,56.7885742 858.753662,57.6645508 C859.045654,58.2709961 859.562256,58.7763672 860.303467,59.1806641 C861.044678,59.5849609 862.111572,59.7871094 863.50415,59.7871094 L863.50415,61 L847.702881,61 L847.702881,59.7871094 C849.275146,59.7871094 850.443115,59.5400391 851.206787,59.0458984 C851.768311,58.6865234 852.161377,58.1137695 852.385986,57.3276367 C852.498291,56.9458008 852.554443,55.8564453 852.554443,54.0595703 L852.554443,42.0991211 C852.554443,38.5053711 852.481445,36.3659668 852.335449,35.6809082 C852.189453,34.9958496 851.919922,34.4960938 851.526855,34.1816406 C851.133789,33.8671875 850.645264,33.7099609 850.061279,33.7099609 C849.36499,33.7099609 848.578857,33.878418 847.702881,34.215332 L847.365967,33.0024414 L856.698486,29.2290039 L858.113525,29.2290039 Z" id="Path"></path>
                    <path d="M887.155518,29.2290039 C891.827393,29.2290039 895.578369,31.003418 898.408447,34.5522461 C900.811768,37.5844727 902.013428,41.065918 902.013428,44.996582 C902.013428,47.7592773 901.35083,50.5556641 900.025635,53.3857422 C898.700439,56.2158203 896.875488,58.3496094 894.550781,59.7871094 C892.226074,61.2246094 889.637451,61.9433594 886.784912,61.9433594 C882.135498,61.9433594 878.440674,60.090332 875.700439,56.3842773 C873.386963,53.262207 872.230225,49.7583008 872.230225,45.8725586 C872.230225,43.0424805 872.932129,40.229248 874.335938,37.4328613 C875.739746,34.6364746 877.587158,32.5700684 879.878174,31.2336426 C882.169189,29.8972168 884.594971,29.2290039 887.155518,29.2290039 Z M886.111084,31.4189453 C884.920654,31.4189453 883.724609,31.7727051 882.522949,32.4802246 C881.321289,33.1877441 880.349854,34.4287109 879.608643,36.203125 C878.867432,37.9775391 878.496826,40.2573242 878.496826,43.0424805 C878.496826,47.534668 879.389648,51.4091797 881.175293,54.6660156 C882.960938,57.9228516 885.313721,59.5512695 888.233643,59.5512695 C890.412354,59.5512695 892.209229,58.652832 893.624268,56.855957 C895.039307,55.059082 895.746826,51.9707031 895.746826,47.5908203 C895.746826,42.1103516 894.567627,37.7978516 892.209229,34.6533203 C890.614502,32.4970703 888.581787,31.4189453 886.111084,31.4189453 Z" id="Shape"></path>
                    <path d="M904.843506,30.1386719 L917.781006,30.1386719 L917.781006,31.3852539 C916.590576,31.4750977 915.810059,31.6884766 915.439453,32.0253906 C915.068848,32.3623047 914.883545,32.8452148 914.883545,33.4741211 C914.883545,34.1704102 915.074463,35.0126953 915.456299,36.0009766 L922.059814,53.7563477 L928.697021,39.3027344 L926.945068,34.7543945 C926.406006,33.4067383 925.698486,32.4746094 924.82251,31.9580078 C924.328369,31.6435547 923.407471,31.4526367 922.059814,31.3852539 L922.059814,30.1386719 L936.749268,30.1386719 L936.749268,31.3852539 C935.13208,31.4526367 933.986572,31.7446289 933.312744,32.2612305 C932.863525,32.6206055 932.638916,33.1933594 932.638916,33.9794922 C932.638916,34.4287109 932.72876,34.8891602 932.908447,35.3608398 L939.91626,53.0825195 L946.418701,36.0009766 C946.86792,34.7880859 947.092529,33.8222656 947.092529,33.1035156 C947.092529,32.6767578 946.873535,32.2949219 946.435547,31.9580078 C945.997559,31.6210938 945.138428,31.4301758 943.858154,31.3852539 L943.858154,30.1386719 L953.594971,30.1386719 L953.594971,31.3852539 C951.640869,31.6772461 950.203369,33.0024414 949.282471,35.3608398 L938.9729,61.9433594 L937.591553,61.9433594 L929.876221,42.2338867 L920.880615,61.9433594 L919.634033,61.9433594 L909.72876,36.0009766 C909.077393,34.3613281 908.437256,33.255127 907.80835,32.682373 C907.179443,32.1096191 906.191162,31.6772461 904.843506,31.3852539 L904.843506,30.1386719 Z" id="Path"></path>
                    <path d="M965.353271,19.9975586 L965.353271,30.1386719 L972.563232,30.1386719 L972.563232,32.4970703 L965.353271,32.4970703 L965.353271,52.5097656 C965.353271,54.5087891 965.639648,55.8564453 966.212402,56.5527344 C966.785156,57.2490234 967.520752,57.597168 968.419189,57.597168 C969.1604,57.597168 969.87915,57.3669434 970.575439,56.9064941 C971.271729,56.4460449 971.810791,55.7666016 972.192627,54.8681641 L973.506592,54.8681641 C972.720459,57.0693359 971.608643,58.7258301 970.171143,59.8376465 C968.733643,60.9494629 967.251221,61.5053711 965.723877,61.5053711 C964.690674,61.5053711 963.679932,61.2189941 962.69165,60.6462402 C961.703369,60.0734863 960.973389,59.2536621 960.501709,58.1867676 C960.030029,57.119873 959.794189,55.4746094 959.794189,53.2509766 L959.794189,32.4970703 L954.908936,32.4970703 L954.908936,31.3852539 C956.144287,30.8911133 957.407715,30.0544434 958.699219,28.8752441 C959.990723,27.6960449 961.141846,26.2978516 962.152588,24.6806641 C962.669189,23.8271484 963.387939,22.2661133 964.308838,19.9975586 L965.353271,19.9975586 Z" id="Path"></path>
                    <path d="M984.624756,13.0908203 L984.624756,35.6640625 C987.11792,32.9238281 989.094482,31.1662598 990.554443,30.3913574 C992.014404,29.6164551 993.474365,29.2290039 994.934326,29.2290039 C996.686279,29.2290039 998.191162,29.7119141 999.448975,30.6777344 C1000.70679,31.6435547 1001.63892,33.159668 1002.24536,35.2260742 C1002.67212,36.6635742 1002.8855,39.2915039 1002.8855,43.1098633 L1002.8855,54.0258789 C1002.8855,55.9799805 1003.04272,57.3164062 1003.35718,58.0351562 C1003.58179,58.5742188 1003.96362,59.0009766 1004.50269,59.3154297 C1005.04175,59.6298828 1006.03003,59.7871094 1007.46753,59.7871094 L1007.46753,61 L992.306396,61 L992.306396,59.7871094 L993.013916,59.7871094 C994.451416,59.7871094 995.450928,59.5681152 996.012451,59.130127 C996.573975,58.6921387 996.967041,58.0463867 997.19165,57.1928711 C997.259033,56.8334961 997.292725,55.777832 997.292725,54.0258789 L997.292725,43.1098633 C997.292725,39.7407227 997.118652,37.5283203 996.770508,36.4726562 C996.422363,35.4169922 995.866455,34.6252441 995.102783,34.0974121 C994.339111,33.5695801 993.418213,33.3056641 992.340088,33.3056641 C991.239502,33.3056641 990.093994,33.5976562 988.903564,34.1816406 C987.713135,34.765625 986.286865,35.9448242 984.624756,37.7192383 L984.624756,54.0258789 C984.624756,56.137207 984.742676,57.4511719 984.978516,57.9677734 C985.214355,58.484375 985.652344,58.916748 986.29248,59.2648926 C986.932617,59.6130371 988.038818,59.7871094 989.611084,59.7871094 L989.611084,61 L974.315186,61 L974.315186,59.7871094 C975.685303,59.7871094 976.763428,59.5737305 977.549561,59.1469727 C977.998779,58.9223633 978.358154,58.4956055 978.627686,57.8666992 C978.897217,57.237793 979.031982,55.9575195 979.031982,54.0258789 L979.031982,26.0957031 C979.031982,22.5693359 978.947754,20.4018555 978.779297,19.5932617 C978.61084,18.784668 978.352539,18.234375 978.004395,17.9423828 C977.65625,17.6503906 977.190186,17.5043945 976.606201,17.5043945 C976.134521,17.5043945 975.37085,17.684082 974.315186,18.043457 L973.843506,16.8642578 L983.074951,13.0908203 L984.624756,13.0908203 Z" id="Path"></path>
                </g>
            </g>
        </g>
    </g>
</svg>